<svg width="725" height="626" viewBox="0 0 725 626" fill="none" xmlns="http://www.w3.org/2000/svg">
<circle cx="365" cy="284" r="225" fill="url(#paint0_linear_84_174)"/>
<circle cx="635" cy="299" r="90" fill="url(#paint1_linear_84_174)"/>
<path d="M591.4 310V287.6H597.64V304.976H606.248V287.6H612.488V310H591.4ZM609.768 314.576V308.592L611.08 310H606.248V304.976H615.56V314.576H609.768ZM627.039 310.288C624.991 310.288 623.199 309.904 621.663 309.136C620.148 308.347 618.964 307.28 618.111 305.936C617.279 304.571 616.863 303.024 616.863 301.296C616.863 299.568 617.268 298.032 618.079 296.688C618.911 295.323 620.052 294.267 621.503 293.52C622.953 292.752 624.585 292.368 626.399 292.368C628.105 292.368 629.663 292.72 631.071 293.424C632.479 294.107 633.599 295.12 634.431 296.464C635.263 297.808 635.679 299.44 635.679 301.36C635.679 301.573 635.668 301.819 635.647 302.096C635.625 302.373 635.604 302.629 635.583 302.864H621.855V299.664H632.351L630.047 300.56C630.068 299.771 629.919 299.088 629.599 298.512C629.3 297.936 628.873 297.488 628.319 297.168C627.785 296.848 627.156 296.688 626.431 296.688C625.705 296.688 625.065 296.848 624.51 297.168C623.977 297.488 623.561 297.947 623.263 298.544C622.964 299.12 622.815 299.803 622.815 300.592V301.52C622.815 302.373 622.985 303.109 623.327 303.728C623.689 304.347 624.201 304.827 624.863 305.168C625.524 305.488 626.313 305.648 627.231 305.648C628.084 305.648 628.809 305.531 629.407 305.296C630.025 305.04 630.633 304.656 631.231 304.144L634.431 307.472C633.599 308.389 632.575 309.093 631.359 309.584C630.143 310.053 628.703 310.288 627.039 310.288ZM637.069 310L637.325 305.04C637.475 305.061 637.613 305.083 637.741 305.104C637.869 305.104 637.987 305.104 638.093 305.104C638.627 305.104 639.043 304.976 639.341 304.72C639.661 304.443 639.896 304.069 640.045 303.6C640.216 303.131 640.333 302.587 640.397 301.968C640.483 301.328 640.536 300.635 640.557 299.888L640.813 292.656H656.493V310H650.413V296.112L651.757 297.488H644.813L646.093 296.048L645.901 300.144C645.837 301.701 645.699 303.12 645.485 304.4C645.293 305.659 644.984 306.736 644.557 307.632C644.131 308.528 643.544 309.221 642.797 309.712C642.072 310.181 641.144 310.416 640.013 310.416C639.608 310.416 639.149 310.373 638.637 310.288C638.147 310.224 637.624 310.128 637.069 310ZM660.579 310V292.656H666.627V301.744L673.891 292.656H679.491V310H673.411V300.88L666.211 310H660.579Z" fill="white"/>
<circle cx="125" cy="501" r="125" fill="url(#paint2_linear_84_174)"/>
<circle cx="575" cy="134" r="75" fill="url(#paint3_linear_84_174)"/>
<path d="M527.456 141.704L528.872 138.368C529.592 138.736 530.344 139.016 531.128 139.208C531.912 139.4 532.672 139.512 533.408 139.544C534.144 139.576 534.808 139.528 535.4 139.4C536.008 139.256 536.488 139.04 536.84 138.752C537.192 138.464 537.368 138.088 537.368 137.624C537.368 137.112 537.152 136.744 536.72 136.52C536.304 136.28 535.752 136.16 535.064 136.16H530.768V132.68H534.68C535.32 132.68 535.816 132.552 536.168 132.296C536.52 132.04 536.696 131.696 536.696 131.264C536.696 130.848 536.544 130.52 536.24 130.28C535.936 130.024 535.528 129.848 535.016 129.752C534.504 129.64 533.928 129.6 533.288 129.632C532.648 129.664 531.984 129.784 531.296 129.992C530.608 130.184 529.944 130.448 529.304 130.784L527.912 127.232C529.048 126.672 530.24 126.288 531.488 126.08C532.736 125.872 533.952 125.824 535.136 125.936C536.32 126.048 537.392 126.312 538.352 126.728C539.312 127.128 540.072 127.664 540.632 128.336C541.208 129.008 541.496 129.8 541.496 130.712C541.496 131.512 541.28 132.224 540.848 132.848C540.416 133.472 539.832 133.96 539.096 134.312C538.36 134.664 537.512 134.84 536.552 134.84L536.672 133.832C537.776 133.832 538.736 134.024 539.552 134.408C540.384 134.792 541.024 135.32 541.472 135.992C541.936 136.648 542.168 137.408 542.168 138.272C542.168 139.088 541.952 139.816 541.52 140.456C541.104 141.08 540.52 141.608 539.768 142.04C539.016 142.472 538.152 142.792 537.176 143C536.216 143.224 535.184 143.328 534.08 143.312C532.976 143.312 531.856 143.176 530.72 142.904C529.6 142.632 528.512 142.232 527.456 141.704ZM552.178 143V140.576L551.866 139.976V135.512C551.866 134.792 551.642 134.24 551.194 133.856C550.762 133.456 550.066 133.256 549.105 133.256C548.482 133.256 547.85 133.36 547.21 133.568C546.57 133.76 546.026 134.032 545.578 134.384L544.042 131.288C544.778 130.808 545.658 130.44 546.682 130.184C547.722 129.912 548.754 129.776 549.778 129.776C551.89 129.776 553.522 130.264 554.674 131.24C555.842 132.2 556.426 133.712 556.426 135.776V143H552.178ZM548.338 143.216C547.298 143.216 546.418 143.04 545.698 142.688C544.978 142.336 544.426 141.856 544.042 141.248C543.674 140.64 543.49 139.96 543.49 139.208C543.49 138.408 543.69 137.72 544.09 137.144C544.506 136.552 545.138 136.104 545.986 135.8C546.834 135.48 547.93 135.32 549.273 135.32H552.346V137.696H549.898C549.162 137.696 548.642 137.816 548.338 138.056C548.05 138.296 547.906 138.616 547.906 139.016C547.906 139.416 548.058 139.736 548.362 139.976C548.666 140.216 549.082 140.336 549.61 140.336C550.106 140.336 550.554 140.216 550.954 139.976C551.37 139.72 551.674 139.336 551.866 138.824L552.49 140.504C552.25 141.4 551.778 142.08 551.074 142.544C550.386 142.992 549.474 143.216 548.338 143.216ZM568.193 141.008V133.616H564.713L564.665 134.864C564.633 135.488 564.593 136.08 564.545 136.64C564.513 137.184 564.433 137.68 564.305 138.128C564.177 138.576 563.993 138.96 563.753 139.28C563.513 139.584 563.193 139.808 562.793 139.952L558.329 139.352C558.761 139.352 559.113 139.232 559.385 138.992C559.673 138.736 559.897 138.384 560.057 137.936C560.217 137.488 560.329 136.976 560.393 136.4C560.473 135.808 560.529 135.184 560.561 134.528L560.729 129.992H572.753V141.008H568.193ZM557.897 145.688V139.352H574.553V145.688H570.329V143H562.145V145.688H557.897ZM584.217 143V140.576L583.905 139.976V135.512C583.905 134.792 583.681 134.24 583.233 133.856C582.801 133.456 582.105 133.256 581.145 133.256C580.521 133.256 579.889 133.36 579.249 133.568C578.609 133.76 578.065 134.032 577.617 134.384L576.081 131.288C576.817 130.808 577.697 130.44 578.721 130.184C579.761 129.912 580.793 129.776 581.817 129.776C583.929 129.776 585.561 130.264 586.713 131.24C587.881 132.2 588.465 133.712 588.465 135.776V143H584.217ZM580.377 143.216C579.337 143.216 578.457 143.04 577.737 142.688C577.017 142.336 576.465 141.856 576.081 141.248C575.713 140.64 575.529 139.96 575.529 139.208C575.529 138.408 575.729 137.72 576.129 137.144C576.545 136.552 577.177 136.104 578.025 135.8C578.873 135.48 579.969 135.32 581.313 135.32H584.385V137.696H581.937C581.201 137.696 580.681 137.816 580.377 138.056C580.089 138.296 579.945 138.616 579.945 139.016C579.945 139.416 580.097 139.736 580.401 139.976C580.705 140.216 581.121 140.336 581.649 140.336C582.145 140.336 582.593 140.216 582.993 139.976C583.409 139.72 583.713 139.336 583.905 138.824L584.529 140.504C584.289 141.4 583.817 142.08 583.113 142.544C582.425 142.992 581.513 143.216 580.377 143.216ZM599.44 138.2C598.992 138.472 598.472 138.696 597.88 138.872C597.288 139.032 596.6 139.112 595.816 139.112C594.008 139.112 592.64 138.712 591.712 137.912C590.8 137.096 590.344 135.8 590.344 134.024V129.992H594.904V133.712C594.904 134.448 595.072 134.968 595.408 135.272C595.744 135.576 596.232 135.728 596.872 135.728C597.368 135.728 597.824 135.672 598.24 135.56C598.672 135.432 599.064 135.264 599.416 135.056L599.44 138.2ZM599.128 143V129.992H603.664V143H599.128ZM606.747 143V129.992H611.283V136.808L616.731 129.992H620.931V143H616.371V136.16L610.971 143H606.747Z" fill="white"/>
<g clip-path="url(#clip0_84_174)">
<path d="M544.741 375.62H186V375.792H544.741V375.62Z" fill="#EBEBEB"/>
<path d="M268.749 382.21H250.903V382.382H268.749V382.21Z" fill="#EBEBEB"/>
<path d="M315.027 380.332H295.296V380.504H315.027V380.332Z" fill="#EBEBEB"/>
<path d="M261.892 388.636H220.2V388.808H261.892V388.636Z" fill="#EBEBEB"/>
<path d="M508.796 387.473H493.301V387.646H508.796V387.473Z" fill="#EBEBEB"/>
<path d="M360.148 381.667H340.109V381.84H360.148V381.667Z" fill="#EBEBEB"/>
<path d="M452.106 384.552H401.723V384.724H452.106V384.552Z" fill="#EBEBEB"/>
<path d="M356.053 344.758H217.508C215.25 344.758 213.413 342.986 213.413 340.808V152.977C213.413 150.799 215.25 149.027 217.508 149.027H356.053C358.31 149.027 360.148 150.799 360.148 152.977V340.808C360.148 342.985 358.31 344.758 356.053 344.758ZM217.508 149.201C215.348 149.201 213.592 150.895 213.592 152.977V340.808C213.592 342.891 215.348 344.585 217.508 344.585H356.053C358.212 344.585 359.968 342.891 359.968 340.808V152.977C359.968 150.895 358.212 149.2 356.053 149.2L217.508 149.201Z" fill="#EBEBEB"/>
<path d="M511.242 344.758H372.697C370.44 344.758 368.603 342.986 368.603 340.808V152.977C368.603 150.799 370.44 149.027 372.697 149.027H511.242C513.5 149.027 515.337 150.799 515.337 152.977V340.808C515.338 342.985 513.5 344.758 511.242 344.758ZM372.697 149.201C370.539 149.201 368.782 150.895 368.782 152.977V340.808C368.782 342.891 370.539 344.585 372.697 344.585H511.242C513.401 344.585 515.158 342.891 515.158 340.808V152.977C515.158 150.895 513.401 149.2 511.242 149.2L372.697 149.201Z" fill="#EBEBEB"/>
<path d="M331.33 302.837H222.273V354.199H331.33V302.837Z" fill="#F5F5F5"/>
<path d="M327.025 350.047V306.99H226.578V350.047H327.025Z" fill="#EBEBEB"/>
<path d="M327.025 350.047V306.989H276.124V350.047H327.025Z" fill="#E6E6E6"/>
<path d="M295.296 350.047V306.989H276.124V350.047H295.296Z" fill="#E0E0E0"/>
<path d="M233.017 335.746V321.291H231.662V335.746H233.017Z" fill="#E0E0E0"/>
<path d="M327.025 310.372V306.989H226.577V310.372H327.025Z" fill="#E0E0E0"/>
<path d="M331.33 354.199H353.013V302.838H331.33V354.199Z" fill="#E6E6E6"/>
<path d="M329.228 375.619H331.33V354.199H327.703L329.228 375.619Z" fill="#F5F5F5"/>
<path d="M224.374 375.619H222.273V354.199H225.9L224.374 375.619Z" fill="#F5F5F5"/>
<path d="M350.912 375.619H353.014V354.199H349.386L350.912 375.619Z" fill="#E6E6E6"/>
<path d="M246.058 375.619H243.957V354.199H247.583L246.058 375.619Z" fill="#E6E6E6"/>
<path d="M377.857 375.619H373.718V356.747H383.389L377.857 375.619Z" fill="#F5F5F5"/>
<path d="M451.754 375.619H455.894V356.747H446.222L451.754 375.619Z" fill="#E0E0E0"/>
<path d="M506.083 375.619H510.222V356.747H500.55L506.083 375.619Z" fill="#E0E0E0"/>
<path d="M382.329 365.532H501.611C506.347 365.532 510.222 361.794 510.222 357.226V337.361C510.222 332.793 506.347 329.056 501.611 329.056H382.329C377.593 329.056 373.718 332.793 373.718 337.361V357.226C373.718 361.794 377.593 365.532 382.329 365.532Z" fill="#F5F5F5"/>
<path d="M432.186 375.62H428.047V356.748H437.718L432.186 375.62Z" fill="#F5F5F5"/>
<path d="M436.658 365.532H501.611C506.347 365.532 510.222 361.794 510.222 357.226V337.361C510.222 332.793 506.347 329.056 501.611 329.056H436.658C431.922 329.056 428.047 332.793 428.047 337.361V357.226C428.047 361.794 431.922 365.532 436.658 365.532Z" fill="#E0E0E0"/>
<path d="M390.255 329.01H493.686C496.531 329.01 498.859 326.764 498.859 324.02C498.859 321.275 496.531 319.03 493.686 319.03H390.255C387.409 319.03 385.081 321.275 385.081 324.02C385.081 326.764 387.409 329.01 390.255 329.01Z" fill="#FAFAFA"/>
<path d="M432.143 329.01H493.685C496.531 329.01 498.859 326.764 498.859 324.02C498.859 321.275 496.531 319.03 493.685 319.03H432.143C429.298 319.03 426.97 321.275 426.97 324.02C426.97 326.764 429.298 329.01 432.143 329.01Z" fill="#EBEBEB"/>
<path d="M239.036 229.09C234.831 242.74 237.784 280.302 237.784 280.302L242.543 280.323C244.888 268.078 240.995 237.425 239.036 229.09Z" fill="#E6E6E6"/>
<path d="M237.368 279.771H240.876C240.876 279.771 236.412 247.017 231.788 236.252C230.512 250.554 237.368 279.771 237.368 279.771Z" fill="#F0F0F0"/>
<path d="M263.132 234.483C264.791 246.659 254.753 280.163 254.753 280.163L249.964 280.181C249.911 269.259 259.594 241.918 263.132 234.483Z" fill="#E6E6E6"/>
<path d="M255.272 279.689L251.745 279.689C251.745 279.689 262.398 250.473 269.073 240.872C267.664 253.629 255.272 279.689 255.272 279.689Z" fill="#F0F0F0"/>
<path d="M255.713 231.17C258.739 244.248 249.456 280.233 249.456 280.233L243.681 280.253C242.698 268.522 252.072 239.155 255.713 231.17Z" fill="#E6E6E6"/>
<path d="M245.537 279.771H242.029C242.029 279.771 242.726 247.017 246.112 236.252C249.032 250.554 245.537 279.771 245.537 279.771Z" fill="#F0F0F0"/>
<path d="M231.788 277.695C231.788 291.58 238.32 302.837 246.377 302.837C254.434 302.837 260.965 291.58 260.965 277.695H231.788Z" fill="#F0F0F0"/>
<path d="M486.625 169.358H301.574V279.689H486.625V169.358Z" fill="#F0F0F0"/>
<path d="M486.625 279.69H487.741V169.359H486.625V279.69Z" fill="#E6E6E6"/>
<path d="M482.32 275.537V173.511L305.88 173.511V275.537H482.32Z" fill="#FAFAFA"/>
<path d="M369.586 258.012C388.761 258.012 404.306 243.019 404.306 224.524C404.306 206.03 388.761 191.037 369.586 191.037C350.41 191.037 334.865 206.03 334.865 224.524C334.865 243.019 350.41 258.012 369.586 258.012Z" fill="#EBEBEB"/>
<path d="M418.614 258.357C399.272 258.357 383.534 243.18 383.534 224.524C383.534 205.869 399.272 190.691 418.614 190.691C437.957 190.691 453.693 205.869 453.693 224.524C453.693 243.18 437.957 258.357 418.614 258.357ZM418.614 191.383C399.667 191.383 384.252 206.25 384.252 224.524C384.252 242.799 399.666 257.665 418.614 257.665C437.561 257.665 452.976 242.799 452.976 224.524C452.976 206.251 437.561 191.383 418.614 191.383Z" fill="#E0E0E0"/>
<path d="M365.371 406.872C442.2 406.872 504.482 403.364 504.482 399.037C504.482 394.709 442.2 391.201 365.371 391.201C288.541 391.201 226.259 394.709 226.259 399.037C226.259 403.364 288.541 406.872 365.371 406.872Z" fill="#F5F5F5"/>
<path d="M438.891 326.725H258.085C253.35 326.725 249.342 322.988 249.179 318.421L244.518 188.018C244.354 183.451 248.095 179.714 252.831 179.714H433.636C438.371 179.714 442.379 183.451 442.543 188.018L447.204 318.422C447.367 322.988 443.626 326.725 438.891 326.725Z" fill="white"/>
<path d="M242.955 224.618L243.672 224.595L243.528 220.558L242.81 220.582L242.955 224.618ZM242.67 216.666L243.388 216.642L242.929 203.831L242.212 203.855L242.67 216.666Z" fill="#D10000"/>
<path d="M438.903 327.071H258.098C253.152 327.071 248.991 323.191 248.82 318.421L244.159 188.018C243.988 183.248 247.873 179.368 252.819 179.368H433.624C438.57 179.368 442.731 183.248 442.902 188.018L447.562 318.422C447.733 323.191 443.849 327.071 438.903 327.071ZM252.843 180.06C248.293 180.06 244.72 183.63 244.876 188.018L249.537 318.422C249.694 322.81 253.523 326.38 258.072 326.38H438.877C443.427 326.38 447.001 322.81 446.844 318.422L442.183 188.018C442.026 183.63 438.197 180.06 433.648 180.06H252.843Z" fill="#9E0005"/>
<path d="M358.442 206.362L333.558 282.785L351.767 286.209C353.194 286.477 354.591 285.802 355.205 284.562C358.705 277.497 363.698 271.215 369.861 266.139C375.949 261.124 380.279 254.073 381.672 245.765C384.482 229.002 374.405 212.689 358.442 206.362Z" fill="#9E0005"/>
<path d="M342.926 304.344C347.289 305.165 351.434 302.416 352.135 298.235C352.836 294.054 349.839 289.962 345.475 289.142L332.293 286.664L327.482 301.441L342.926 304.344Z" fill="#9E0005"/>
<g opacity="0.2">
<path d="M341.526 196.949C300.894 207.2 300.25 223.604 313.959 254.559C316.382 260.032 318.505 265.621 320.281 271.302C329.816 301.802 342.65 241.286 349.456 215.725C349.638 215.044 349.839 214.37 350.1 213.716C352.672 207.267 358.134 200.599 350.364 197.474C347.546 196.339 344.42 196.219 341.526 196.949Z" fill="#D10000"/>
<path d="M320.258 294.466C315.882 292.944 311.901 290.793 314.978 287C315.791 285.998 316.862 285.22 318.023 284.609C323.579 281.687 325.65 283.558 326.677 289.404C327.298 292.942 323.779 295.69 320.258 294.466Z" fill="#D10000"/>
<path d="M383.349 300.526C372.048 312.772 359.009 322.711 349.453 306.466C346.928 302.173 345.553 297.37 344.899 292.528C341.773 269.359 351.265 265.37 373.671 271.112C387.235 274.588 392.443 290.671 383.349 300.526Z" fill="#D10000"/>
<path d="M285.112 199.564C293.584 202.201 301.346 206.068 295.723 213.534C294.237 215.507 292.243 217.068 290.065 218.313C279.643 224.271 275.553 220.816 273.186 209.679C271.754 202.936 278.293 197.443 285.112 199.564Z" fill="#D10000"/>
<path d="M415.414 285.632C413.971 285.632 412.687 284.659 411.839 283.803C410.736 282.692 409.85 281.419 409.202 280.019C408.075 277.577 408.831 275.43 411.173 274.418C413.397 273.457 417.026 273.44 419.012 275.091C419.886 275.816 420.793 277.164 420.148 279.458L420.048 279.814C419.639 281.284 419.215 282.804 418.292 284.044C417.623 284.942 416.732 285.498 415.784 285.61C415.66 285.626 415.536 285.632 415.414 285.632ZM414.677 274.441C413.527 274.441 412.384 274.664 411.487 275.052C409.502 275.909 408.893 277.668 409.858 279.757C410.469 281.08 411.307 282.284 412.35 283.334C413.152 284.143 414.388 285.072 415.673 284.923C416.417 284.835 417.158 284.363 417.705 283.628C418.555 282.487 418.962 281.026 419.355 279.614L419.454 279.256C419.894 277.696 419.591 276.469 418.555 275.609C417.572 274.792 416.12 274.441 414.677 274.441Z" fill="#D10000"/>
</g>
<path d="M332.782 279.452L323.089 277.63C321.504 277.332 320.261 276.042 320.064 274.493C319.079 266.734 316.423 259.061 312.17 251.688C307.68 243.906 306.278 234.907 308.222 226.35C312.405 207.94 330.281 196.632 349.798 200.04C352.422 200.499 355.023 201.235 357.527 202.227L357.881 202.368L357.769 202.712L332.782 279.452ZM342.921 200.211C326.594 200.211 312.609 210.683 309.008 226.541C307.106 234.913 308.477 243.717 312.87 251.331C317.175 258.794 319.864 266.564 320.862 274.426C321.016 275.633 321.984 276.639 323.217 276.87L332.221 278.563L356.889 202.804C354.548 201.903 352.125 201.23 349.681 200.803C347.398 200.404 345.138 200.211 342.921 200.211Z" fill="#9E0005"/>
<path d="M358.902 199.229L358.135 198.975L361.802 187.716L362.569 187.97L358.902 199.229Z" fill="#D10000"/>
<path d="M361.942 201.065L361.536 200.384L364.053 199.05L364.458 199.732L361.942 201.065Z" fill="#D10000"/>
<path d="M323.395 308.278L322.628 308.023L325.138 300.313L325.905 300.569L323.395 308.278Z" fill="#9E0005"/>
<path d="M326.706 298.108L325.494 297.88C323.278 297.463 321.327 296.238 320.003 294.43C318.679 292.621 318.145 290.456 318.502 288.332C319.24 283.932 323.58 281.053 328.171 281.918L331.759 282.592L326.706 298.108ZM319.294 288.482C318.972 290.402 319.455 292.361 320.653 293.998C321.852 295.634 323.617 296.743 325.621 297.12L326.145 297.219L330.715 283.181L328.044 282.679C323.887 281.894 319.963 284.499 319.294 288.482Z" fill="#9E0005"/>
<path d="M445.976 264.571C445.817 267.665 444.063 278.065 445.02 280.141C445.976 282.217 448.687 287.983 457.376 287.83C466.066 287.676 464.71 274.912 464.71 274.912L445.976 264.571Z" fill="#263238"/>
<path opacity="0.2" d="M445.976 264.571C445.817 267.665 444.063 278.065 445.02 280.141C445.976 282.217 448.687 287.983 457.376 287.83C466.066 287.676 464.71 274.912 464.71 274.912L445.976 264.571Z" fill="black"/>
<path d="M473.324 233.75C473.609 235.468 473.976 237.081 474.337 238.733C474.718 240.372 475.141 241.999 475.569 243.624C475.997 245.25 476.473 246.864 476.967 248.472C477.213 249.277 477.469 250.079 477.735 250.877C478.015 251.687 478.225 252.419 478.624 253.417C479.369 255.22 480.303 256.709 481.245 258.189C482.21 259.646 483.216 261.043 484.272 262.394C485.331 263.743 486.417 265.059 487.522 266.356C488.657 267.635 489.778 268.9 490.996 270.129L493.387 268.313C492.496 266.934 491.568 265.546 490.693 264.146C489.791 262.761 488.914 261.365 488.076 259.958C487.234 258.555 486.411 257.152 485.664 255.743C484.915 254.35 484.227 252.909 483.786 251.605C483.598 251.048 483.396 250.172 483.192 249.396L482.598 247.016L481.455 242.249C481.081 240.659 480.735 239.063 480.391 237.468C480.029 235.887 479.703 234.261 479.376 232.725L473.324 233.75Z" fill="#FFC3BD"/>
<path d="M492.579 267.417L497.668 270.607L492.796 271.978C492.796 271.978 489.058 269.716 489.753 267.401L492.579 267.417Z" fill="#FFC3BD"/>
<path d="M499.106 273.446L495.479 274.981L492.796 271.978L497.668 270.607L499.106 273.446Z" fill="#FFC3BD"/>
<path d="M466.647 393.548C467.202 393.548 467.809 393.438 468.234 393.341C468.289 393.328 468.332 393.285 468.342 393.231C468.352 393.177 468.327 393.123 468.28 393.093C468.074 392.962 466.249 391.826 465.55 392.131C465.439 392.18 465.3 392.285 465.266 392.517C465.221 392.825 465.301 393.07 465.503 393.247C465.758 393.472 466.185 393.548 466.647 393.548ZM467.831 393.145C466.785 393.347 465.998 393.312 465.693 393.044C465.564 392.93 465.516 392.771 465.548 392.556C465.564 392.44 465.62 392.402 465.666 392.382C466.036 392.218 467.087 392.711 467.831 393.145Z" fill="#407BFF"/>
<path d="M468.201 393.344C468.225 393.344 468.25 393.338 468.273 393.326C468.316 393.301 468.344 393.256 468.344 393.207C468.344 393.136 468.335 391.468 467.682 390.91C467.508 390.761 467.305 390.699 467.079 390.726C466.723 390.768 466.626 390.984 466.6 391.109C466.465 391.762 467.557 393.013 468.131 393.326C468.153 393.339 468.177 393.344 468.201 393.344ZM467.178 390.995C467.295 390.995 467.399 391.034 467.493 391.115C467.883 391.449 468.017 392.385 468.05 392.941C467.479 392.501 466.797 391.562 466.88 391.163C466.894 391.098 466.932 391.02 467.114 390.999C467.136 390.996 467.158 390.995 467.178 390.995Z" fill="#407BFF"/>
<path d="M427.955 390.124C428.005 390.13 428.054 390.11 428.085 390.072C428.122 390.026 428.125 389.962 428.092 389.913C427.931 389.671 426.516 387.589 425.667 387.486C425.648 387.484 425.631 387.483 425.612 387.482C425.45 387.479 425.312 387.549 425.214 387.684C425.052 387.91 425.011 388.147 425.095 388.388C425.37 389.189 426.987 389.816 427.927 390.118C427.937 390.121 427.946 390.122 427.955 390.124ZM425.641 387.759C426.108 387.816 427.011 388.876 427.617 389.722C426.351 389.27 425.52 388.75 425.366 388.301C425.312 388.144 425.339 387.993 425.449 387.841C425.492 387.781 425.541 387.756 425.608 387.756C425.618 387.757 425.629 387.758 425.641 387.759Z" fill="#407BFF"/>
<path d="M427.955 390.124C427.965 390.125 427.976 390.125 427.987 390.124C428.037 390.12 428.081 390.09 428.102 390.046C428.132 389.986 428.812 388.565 428.467 387.676C428.362 387.404 428.173 387.208 427.904 387.093C427.543 386.938 427.344 387.053 427.241 387.174C426.807 387.691 427.396 389.455 427.858 390.068C427.881 390.099 427.916 390.119 427.955 390.124ZM427.624 387.295C427.667 387.301 427.721 387.315 427.789 387.344C427.987 387.429 428.122 387.569 428.201 387.772C428.427 388.355 428.12 389.263 427.947 389.69C427.533 388.971 427.202 387.657 427.462 387.347C427.477 387.328 427.516 387.282 427.624 387.295Z" fill="#407BFF"/>
<path d="M467.77 213.015C467.071 216.454 465.5 223.957 467.995 226.253C467.995 226.253 467.02 229.742 460.394 229.742C453.108 229.742 456.912 226.253 456.912 226.253C460.889 225.337 460.786 222.492 460.093 219.819L467.77 213.015Z" fill="#FFC3BD"/>
<path d="M458.513 205.238C458.556 205.242 458.599 205.235 458.642 205.219C458.787 205.163 458.858 205.004 458.8 204.862C458.216 203.452 456.929 203.19 456.875 203.179C456.721 203.149 456.57 203.247 456.54 203.395C456.509 203.543 456.608 203.688 456.762 203.718C456.804 203.726 457.804 203.941 458.272 205.066C458.313 205.166 458.409 205.229 458.513 205.238Z" fill="#263238"/>
<path d="M456.087 208.058C456.087 208.058 454.853 209.864 453.76 210.635C454.264 211.326 455.384 211.284 455.384 211.284L456.087 208.058Z" fill="#ED847E"/>
<path d="M456.682 207.357C456.583 207.815 456.25 208.135 455.94 208.072C455.63 208.009 455.46 207.588 455.559 207.13C455.659 206.673 455.991 206.353 456.301 206.416C456.611 206.478 456.782 206.9 456.682 207.357Z" fill="#263238"/>
<path d="M456.433 206.468L455.362 205.921C455.362 205.921 455.76 206.898 456.433 206.468Z" fill="#263238"/>
<path d="M433.991 393.05L428.35 391.051L432.773 378.317L438.415 380.317L433.991 393.05Z" fill="#FFC3BD"/>
<path d="M475.19 393.207H469.18L469.652 379.785H475.661L475.19 393.207Z" fill="#FFC3BD"/>
<path d="M468.704 392.537H475.455C475.701 392.537 475.9 392.701 475.935 392.932L476.704 398.084C476.783 398.619 476.307 399.124 475.74 399.115C473.386 399.077 472.252 398.943 469.283 398.943C467.456 398.943 464.787 399.126 462.265 399.126C459.798 399.126 459.608 396.72 460.659 396.502C465.368 395.525 466.112 394.178 467.699 392.893C467.986 392.661 468.344 392.537 468.704 392.537Z" fill="#263238"/>
<path d="M428.658 389.591L434.524 392.817C434.738 392.935 434.826 393.173 434.737 393.39L432.759 398.233C432.554 398.736 431.88 398.947 431.393 398.668C429.368 397.51 428.451 396.852 425.872 395.433C424.285 394.561 420.909 392.914 418.717 391.71C416.574 390.531 417.644 388.351 418.669 388.663C423.262 390.064 425.564 389.779 427.602 389.421C427.97 389.357 428.346 389.42 428.658 389.591Z" fill="#263238"/>
<path opacity="0.2" d="M432.773 378.322L430.402 385.143L436.136 386.885L438.417 380.322L432.773 378.322Z" fill="black"/>
<path opacity="0.2" d="M475.663 379.788H469.65L469.41 386.707H475.422L475.663 379.788Z" fill="black"/>
<path d="M443.44 233.422C442.287 236.026 441.026 238.7 439.75 241.288C439.097 242.578 438.424 243.86 437.726 245.107C437.038 246.361 436.307 247.582 435.543 248.729C435.168 249.318 434.766 249.849 434.369 250.387C434.116 250.737 434.048 250.778 433.891 250.89C433.742 250.977 433.424 251.044 432.96 250.985C432.502 250.931 431.937 250.778 431.364 250.545C429.033 249.587 426.563 247.786 424.373 245.997L422.067 247.913C422.55 248.597 423.028 249.188 423.55 249.795C424.065 250.397 424.601 250.988 425.181 251.549C426.336 252.679 427.599 253.748 429.165 254.651C429.953 255.094 430.818 255.512 431.858 255.78C432.886 256.042 434.152 256.161 435.476 255.811C436.793 255.487 437.993 254.582 438.678 253.766C439.22 253.136 439.764 252.501 440.239 251.858C442.196 249.287 443.741 246.626 445.205 243.924C446.661 241.214 447.96 238.507 449.139 235.637L443.44 233.422Z" fill="#FFC3BD"/>
<path d="M422.428 252.471C421.962 252.588 421.485 252.323 421.353 251.876L416.052 234.003L418.715 233.338L423.068 251.448C423.179 251.901 422.895 252.355 422.428 252.471Z" fill="#9E0005"/>
<path d="M424.213 232.422C419.737 233.54 415.261 234.656 410.784 235.774C409.687 233.052 409.081 230.14 409 227.166C413.476 226.048 417.953 224.931 422.429 223.813C422.51 226.788 423.116 229.701 424.213 232.422Z" fill="#E02D00"/>
<path opacity="0.3" d="M424.213 232.422C419.737 233.54 417.113 234.194 412.637 235.312C411.54 232.59 410.934 229.678 410.853 226.703C415.329 225.586 417.953 224.931 422.429 223.813C422.51 226.788 423.116 229.701 424.213 232.422Z" fill="white"/>
<path d="M424.032 236.379L412.934 239.149C412.29 239.31 411.633 238.937 411.467 238.316L410.692 235.429C410.525 234.808 410.912 234.174 411.556 234.013L422.654 231.243C423.297 231.083 423.954 231.456 424.121 232.076L424.896 234.964C425.062 235.585 424.675 236.218 424.032 236.379Z" fill="#9E0005"/>
<path d="M425.224 246.805L423.444 242.739L419.36 245.424C419.36 245.424 421.374 248.405 423.767 248.767L425.224 246.805Z" fill="#FFC3BD"/>
<path d="M420.629 240.58L416.967 242.685L419.361 245.424L423.444 242.739L420.629 240.58Z" fill="#FFC3BD"/>
<path d="M472.976 209.015C471.395 214.563 470.849 216.943 467.279 219.231C461.909 222.674 455.19 219.589 455.02 213.698C454.867 208.396 457.477 200.215 463.667 199.134C469.766 198.067 474.556 203.468 472.976 209.015Z" fill="#FFC3BD"/>
<path d="M471.125 195.504C470.213 196.847 470.186 198.621 470.914 200.461C468.931 198.856 465.636 192.772 464.642 191C464.421 191.664 463.774 194.656 464.321 196.844C462.671 196.532 460.402 195.173 457.459 191.248C457.167 193.857 457.932 196.82 459.219 199.557C458.145 199.479 457.203 199.337 456.535 198.998C456.18 200.273 459.358 202.522 459.358 202.522C459.358 202.522 457.453 204.979 459.358 209.834C460.784 212.729 461.253 218.819 464.83 219.514C466.294 219.798 467.957 218.847 469.468 217.567C469.459 217.734 469.408 218.164 469.139 218.71C470.024 218.071 470.964 216.804 471.013 216.113C471.013 216.112 471.015 216.111 471.016 216.11C471.02 216.421 470.981 217.021 470.701 217.784C471.662 216.926 472.609 215.489 472.976 214.389C473.122 214.904 473.232 215.522 473.197 216.172C474.396 214.609 475.027 213.201 475.135 211.901C475.565 212.658 476.021 213.627 476.03 214.356C477.541 211.933 478.025 209.31 477.069 207.422C477.317 207.122 477.518 206.768 477.646 206.342C478.636 203.031 473.706 202.044 471.125 195.504Z" fill="#263238"/>
<path d="M458.625 207.809C458.024 208.793 457.804 209.988 457.876 210.937C457.983 212.365 459.1 212.398 459.959 211.432C460.733 210.562 461.61 208.771 461.074 207.611C460.546 206.47 459.311 206.685 458.625 207.809Z" fill="#FFC3BD"/>
<path d="M456.071 262.722C456.071 262.722 459.559 302.505 463.178 324.927C466.101 343.037 468.405 385.368 468.405 385.368H476.6C476.6 385.368 479.754 346.647 478.27 328.735C474.515 283.41 482.649 277.373 474.033 262.722H456.071Z" fill="#D10000"/>
<path opacity="0.6" d="M456.071 262.722C456.071 262.722 459.559 302.505 463.178 324.927C466.101 343.037 468.405 385.368 468.405 385.368H476.6C476.6 385.368 479.754 346.647 478.27 328.735C474.515 283.41 482.649 277.373 474.033 262.722H456.071Z" fill="white"/>
<path opacity="0.4" d="M464.321 276.156C462.169 279.146 459.3 282.581 458.36 286.256C459.056 292.968 459.874 300.394 460.763 307.535C463.045 301.584 466.976 289.685 464.321 276.156Z" fill="#D10000"/>
<path d="M449.625 262.722C449.625 262.722 443.236 307.27 440.509 324.753C437.673 342.939 429.816 383.311 429.816 383.311L437.633 385.451C437.633 385.451 452.098 346.44 454.998 328.588C458.16 309.125 471.238 262.722 471.238 262.722H449.625Z" fill="#D10000"/>
<path opacity="0.6" d="M449.625 262.722C449.625 262.722 443.236 307.27 440.509 324.753C437.673 342.939 429.816 383.311 429.816 383.311L437.633 385.451C437.633 385.451 452.098 346.44 454.998 328.588C458.16 309.125 471.238 262.722 471.238 262.722H449.625Z" fill="white"/>
<path d="M428.637 383.202L438.63 386.111L440.272 382.535L429.579 379.41L428.637 383.202Z" fill="#263238"/>
<path d="M467.284 385.524H477.722L478.27 381.992L467.224 381.631L467.284 385.524Z" fill="#263238"/>
<path d="M474.398 261.34L475.499 263.447C475.584 263.61 475.384 263.777 475.102 263.777H449.504C449.284 263.777 449.101 263.673 449.088 263.54L448.868 261.432C448.852 261.286 449.043 261.163 449.284 261.163H474.001C474.183 261.163 474.344 261.235 474.398 261.34Z" fill="#407BFF"/>
<path d="M471.079 264.005H471.742C471.874 264.005 471.974 263.94 471.965 263.86L471.654 261.122C471.645 261.042 471.53 260.977 471.398 260.977H470.736C470.604 260.977 470.503 261.043 470.513 261.122L470.823 263.86C470.832 263.94 470.947 264.005 471.079 264.005Z" fill="#407BFF"/>
<path opacity="0.6" d="M471.079 264.005H471.742C471.874 264.005 471.974 263.94 471.965 263.86L471.654 261.122C471.645 261.042 471.53 260.977 471.398 260.977H470.736C470.604 260.977 470.503 261.043 470.513 261.122L470.823 263.86C470.832 263.94 470.947 264.005 471.079 264.005Z" fill="white"/>
<path d="M455.034 264.005H455.696C455.828 264.005 455.928 263.94 455.919 263.86L455.608 261.122C455.599 261.042 455.484 260.977 455.352 260.977H454.69C454.558 260.977 454.458 261.043 454.467 261.122L454.778 263.86C454.786 263.94 454.902 264.005 455.034 264.005Z" fill="#407BFF"/>
<path opacity="0.6" d="M455.034 264.005H455.696C455.828 264.005 455.928 263.94 455.919 263.86L455.608 261.122C455.599 261.042 455.484 260.977 455.352 260.977H454.69C454.558 260.977 454.458 261.043 454.467 261.122L454.778 263.86C454.786 263.94 454.902 264.005 455.034 264.005Z" fill="white"/>
<path d="M475.519 226.139C482.996 229.307 480.961 242.5 483.604 245.423C488.049 250.34 485.451 269.688 485.451 269.688C480.509 265.434 476.063 253.12 472.484 245.753C472.484 245.753 471.297 224.351 475.519 226.139Z" fill="#263238"/>
<path opacity="0.2" d="M479.92 242.141L478.592 259.164C479.905 261.883 481.276 264.451 482.703 266.506C481.914 259.641 481.398 248.209 479.92 242.141Z" fill="black"/>
<path d="M459.137 225.185C451.956 225.704 450.896 224.589 447.85 225.744C444.306 227.088 446.038 248.874 446.038 271.529C446.038 281.826 469.254 293.673 469.254 293.673C469.254 293.673 475.518 288.137 475.518 281.524C479.697 281.524 481.052 277.603 480.255 269.69C479.536 262.545 481.354 239.204 480.133 234.529C478.911 229.855 476.885 224.78 473.299 225.472C469.715 226.164 468.292 224.523 459.137 225.185Z" fill="#263238"/>
<path opacity="0.2" d="M453.789 225.329C454.962 226.156 462.099 228.587 466.285 228.731C470.47 228.875 471.069 226.396 471.069 226.396L453.789 225.329Z" fill="black"/>
<path d="M453.329 225.818C451.909 225.424 454.087 224.281 454.377 223.358C454.666 222.436 454.044 220.36 455.631 220.936C457.218 221.513 466.625 220.129 469.853 221.705C473.082 223.282 473.52 225.05 471.448 226.51C469.374 227.971 461.848 228.183 453.329 225.818Z" fill="#263238"/>
<path opacity="0.2" d="M450.044 242.743C449.297 238.21 447.353 241.601 445.653 245.905C445.717 250.507 445.846 255.634 445.94 261.004C448.257 256.326 451.12 249.31 450.044 242.743Z" fill="black"/>
<path d="M448.868 225.454C444.192 226.104 440.289 238.869 437.646 241.793C433.202 246.71 438.005 263.778 438.005 263.778C442.948 259.523 446.949 253.12 450.528 245.753C450.528 245.753 453.432 224.82 448.868 225.454Z" fill="#263238"/>
<path opacity="0.2" d="M474.517 242.39C474.517 242.39 475.392 274.374 475.521 281.522C476.691 281.522 477.645 281.211 478.384 280.595L474.517 242.39Z" fill="black"/>
</g>
<path d="M33.312 507.448C31.5413 507.448 29.8987 507.171 28.384 506.616C26.8907 506.04 25.5893 505.229 24.48 504.184C23.392 503.139 22.5387 501.912 21.92 500.504C21.3013 499.075 20.992 497.507 20.992 495.8C20.992 494.093 21.3013 492.536 21.92 491.128C22.5387 489.699 23.392 488.461 24.48 487.416C25.5893 486.371 26.8907 485.571 28.384 485.016C29.8987 484.44 31.5413 484.152 33.312 484.152C35.3813 484.152 37.2267 484.515 38.848 485.24C40.4907 485.965 41.856 487.011 42.944 488.376L38.912 492.024C38.1867 491.171 37.3867 490.52 36.512 490.072C35.6587 489.624 34.6987 489.4 33.632 489.4C32.7147 489.4 31.872 489.549 31.104 489.848C30.336 490.147 29.6747 490.584 29.12 491.16C28.5867 491.715 28.16 492.387 27.84 493.176C27.5413 493.965 27.392 494.84 27.392 495.8C27.392 496.76 27.5413 497.635 27.84 498.424C28.16 499.213 28.5867 499.896 29.12 500.472C29.6747 501.027 30.336 501.453 31.104 501.752C31.872 502.051 32.7147 502.2 33.632 502.2C34.6987 502.2 35.6587 501.976 36.512 501.528C37.3867 501.08 38.1867 500.429 38.912 499.576L42.944 503.224C41.856 504.568 40.4907 505.613 38.848 506.36C37.2267 507.085 35.3813 507.448 33.312 507.448ZM53.4358 507.288C51.5371 507.288 49.8518 506.904 48.3798 506.136C46.9078 505.368 45.7451 504.312 44.8918 502.968C44.0598 501.603 43.6438 500.045 43.6438 498.296C43.6438 496.547 44.0598 495 44.8918 493.656C45.7451 492.312 46.9078 491.267 48.3798 490.52C49.8518 489.752 51.5371 489.368 53.4358 489.368C55.3344 489.368 57.0198 489.752 58.4918 490.52C59.9851 491.267 61.1478 492.312 61.9798 493.656C62.8118 495 63.2278 496.547 63.2278 498.296C63.2278 500.045 62.8118 501.603 61.9798 502.968C61.1478 504.312 59.9851 505.368 58.4918 506.136C57.0198 506.904 55.3344 507.288 53.4358 507.288ZM53.4358 502.456C54.1398 502.456 54.7584 502.296 55.2918 501.976C55.8464 501.656 56.2838 501.187 56.6038 500.568C56.9238 499.928 57.0838 499.171 57.0838 498.296C57.0838 497.421 56.9238 496.685 56.6038 496.088C56.2838 495.469 55.8464 495 55.2918 494.68C54.7584 494.36 54.1398 494.2 53.4358 494.2C52.7531 494.2 52.1344 494.36 51.5798 494.68C51.0464 495 50.6091 495.469 50.2678 496.088C49.9478 496.685 49.7878 497.421 49.7878 498.296C49.7878 499.171 49.9478 499.928 50.2678 500.568C50.6091 501.187 51.0464 501.656 51.5798 501.976C52.1344 502.296 52.7531 502.456 53.4358 502.456ZM74.6233 507.288C72.7246 507.288 71.0393 506.904 69.5673 506.136C68.0953 505.368 66.9326 504.312 66.0793 502.968C65.2473 501.603 64.8313 500.045 64.8313 498.296C64.8313 496.547 65.2473 495 66.0793 493.656C66.9326 492.312 68.0953 491.267 69.5673 490.52C71.0393 489.752 72.7246 489.368 74.6233 489.368C76.5219 489.368 78.2073 489.752 79.6793 490.52C81.1726 491.267 82.3353 492.312 83.1673 493.656C83.9993 495 84.4153 496.547 84.4153 498.296C84.4153 500.045 83.9993 501.603 83.1673 502.968C82.3353 504.312 81.1726 505.368 79.6793 506.136C78.2073 506.904 76.5219 507.288 74.6233 507.288ZM74.6233 502.456C75.3273 502.456 75.9459 502.296 76.4793 501.976C77.0339 501.656 77.4713 501.187 77.7913 500.568C78.1113 499.928 78.2713 499.171 78.2713 498.296C78.2713 497.421 78.1113 496.685 77.7913 496.088C77.4713 495.469 77.0339 495 76.4793 494.68C75.9459 494.36 75.3273 494.2 74.6233 494.2C73.9406 494.2 73.3219 494.36 72.7673 494.68C72.2339 495 71.7966 495.469 71.4553 496.088C71.1353 496.685 70.9753 497.421 70.9753 498.296C70.9753 499.171 71.1353 499.928 71.4553 500.568C71.7966 501.187 72.2339 501.656 72.7673 501.976C73.3219 502.296 73.9406 502.456 74.6233 502.456ZM96.2908 507.448C94.8828 507.448 93.5708 507.245 92.3548 506.84C91.1601 506.435 90.1148 505.795 89.2188 504.92C88.3441 504.045 87.6508 502.904 87.1388 501.496C86.6481 500.088 86.4028 498.381 86.4028 496.376C86.4028 495.032 86.5201 493.795 86.7548 492.664C86.9894 491.533 87.3414 490.499 87.8108 489.56C88.3014 488.6 88.9201 487.757 89.6668 487.032C90.4348 486.307 91.3308 485.699 92.3548 485.208C93.3788 484.717 94.5521 484.344 95.8748 484.088L104.291 482.488L105.123 487.576L97.8268 488.952C97.3788 489.037 96.8881 489.144 96.3548 489.272C95.8428 489.4 95.3414 489.592 94.8508 489.848C94.3601 490.083 93.9014 490.413 93.4748 490.84C93.0694 491.267 92.7388 491.832 92.4828 492.536C92.2481 493.219 92.1308 494.072 92.1308 495.096C92.1308 495.395 92.1414 495.64 92.1628 495.832C92.2054 496.003 92.2374 496.205 92.2588 496.44C92.2801 496.653 92.2908 496.984 92.2908 497.432L90.5948 495.864C91.1068 494.968 91.7148 494.211 92.4188 493.592C93.1441 492.973 93.9761 492.493 94.9148 492.152C95.8534 491.811 96.8988 491.64 98.0508 491.64C99.7361 491.64 101.187 491.971 102.403 492.632C103.619 493.272 104.547 494.168 105.187 495.32C105.848 496.451 106.179 497.741 106.179 499.192C106.179 500.899 105.752 502.371 104.899 503.608C104.045 504.824 102.872 505.773 101.379 506.456C99.9068 507.117 98.2108 507.448 96.2908 507.448ZM96.4508 502.84C97.1548 502.84 97.7628 502.691 98.2748 502.392C98.8081 502.093 99.2241 501.677 99.5228 501.144C99.8214 500.611 99.9708 500.013 99.9708 499.352C99.9708 498.669 99.8214 498.083 99.5228 497.592C99.2241 497.101 98.8081 496.717 98.2748 496.44C97.7628 496.163 97.1548 496.024 96.4508 496.024C95.7468 496.024 95.1174 496.163 94.5628 496.44C94.0294 496.717 93.6134 497.091 93.3148 497.56C93.0161 498.029 92.8668 498.595 92.8668 499.256C92.8668 499.917 93.0161 500.525 93.3148 501.08C93.6134 501.635 94.0294 502.072 94.5628 502.392C95.1174 502.691 95.7468 502.84 96.4508 502.84ZM121.05 502.136L119.738 503.512V489.656H125.786V503.512L124.41 502.136H131.77L130.458 503.512V489.656H136.474V507H108.986V489.656H115.034V503.512L113.722 502.136H121.05ZM133.178 510.328V505.656L134.522 507H130.33V502.136H138.81V510.328H133.178ZM149.507 507.288C147.459 507.288 145.667 506.904 144.131 506.136C142.617 505.347 141.433 504.28 140.579 502.936C139.747 501.571 139.331 500.024 139.331 498.296C139.331 496.568 139.737 495.032 140.547 493.688C141.379 492.323 142.521 491.267 143.971 490.52C145.422 489.752 147.054 489.368 148.867 489.368C150.574 489.368 152.131 489.72 153.539 490.424C154.947 491.107 156.067 492.12 156.899 493.464C157.731 494.808 158.147 496.44 158.147 498.36C158.147 498.573 158.137 498.819 158.115 499.096C158.094 499.373 158.073 499.629 158.051 499.864H144.323V496.664H154.819L152.515 497.56C152.537 496.771 152.387 496.088 152.067 495.512C151.769 494.936 151.342 494.488 150.787 494.168C150.254 493.848 149.625 493.688 148.899 493.688C148.174 493.688 147.534 493.848 146.979 494.168C146.446 494.488 146.03 494.947 145.731 495.544C145.433 496.12 145.283 496.803 145.283 497.592V498.52C145.283 499.373 145.454 500.109 145.795 500.728C146.158 501.347 146.67 501.827 147.331 502.168C147.993 502.488 148.782 502.648 149.699 502.648C150.553 502.648 151.278 502.531 151.875 502.296C152.494 502.04 153.102 501.656 153.699 501.144L156.899 504.472C156.067 505.389 155.043 506.093 153.827 506.584C152.611 507.053 151.171 507.288 149.507 507.288ZM170.065 507.288C168.145 507.288 166.427 506.904 164.913 506.136C163.419 505.368 162.246 504.312 161.393 502.968C160.539 501.603 160.113 500.045 160.113 498.296C160.113 496.547 160.539 495 161.393 493.656C162.246 492.312 163.419 491.267 164.913 490.52C166.427 489.752 168.145 489.368 170.065 489.368C172.027 489.368 173.723 489.784 175.153 490.616C176.582 491.448 177.595 492.621 178.193 494.136L173.489 496.536C173.083 495.725 172.582 495.139 171.985 494.776C171.387 494.392 170.737 494.2 170.033 494.2C169.329 494.2 168.689 494.36 168.113 494.68C167.537 495 167.078 495.469 166.737 496.088C166.417 496.685 166.257 497.421 166.257 498.296C166.257 499.192 166.417 499.949 166.737 500.568C167.078 501.187 167.537 501.656 168.113 501.976C168.689 502.296 169.329 502.456 170.033 502.456C170.737 502.456 171.387 502.275 171.985 501.912C172.582 501.528 173.083 500.931 173.489 500.12L178.193 502.52C177.595 504.035 176.582 505.208 175.153 506.04C173.723 506.872 172.027 507.288 170.065 507.288ZM184.67 507V493.144L185.982 494.488H179.07V489.656H196.286V494.488H189.374L190.718 493.144V507H184.67ZM198.642 507V489.656H207.954C210.194 489.656 211.943 490.051 213.202 490.84C214.46 491.608 215.09 492.717 215.09 494.168C215.09 495.555 214.503 496.664 213.33 497.496C212.178 498.307 210.62 498.712 208.658 498.712L209.202 497.432C211.314 497.432 212.903 497.827 213.97 498.616C215.058 499.384 215.602 500.515 215.602 502.008C215.602 503.544 215.004 504.76 213.81 505.656C212.636 506.552 210.834 507 208.402 507H198.642ZM204.082 503.064H207.858C208.604 503.064 209.159 502.936 209.522 502.68C209.884 502.403 210.066 501.997 210.066 501.464C210.066 500.909 209.884 500.504 209.522 500.248C209.18 499.992 208.647 499.864 207.922 499.864H204.082V503.064ZM204.082 496.632H207.41C208.135 496.632 208.668 496.504 209.01 496.248C209.351 495.971 209.522 495.576 209.522 495.064C209.522 494.552 209.351 494.179 209.01 493.944C208.668 493.688 208.135 493.56 207.41 493.56H204.082V496.632ZM227.217 507.288C225.318 507.288 223.633 506.904 222.161 506.136C220.689 505.368 219.526 504.312 218.673 502.968C217.841 501.603 217.425 500.045 217.425 498.296C217.425 496.547 217.841 495 218.673 493.656C219.526 492.312 220.689 491.267 222.161 490.52C223.633 489.752 225.318 489.368 227.217 489.368C229.116 489.368 230.801 489.752 232.273 490.52C233.766 491.267 234.929 492.312 235.761 493.656C236.593 495 237.009 496.547 237.009 498.296C237.009 500.045 236.593 501.603 235.761 502.968C234.929 504.312 233.766 505.368 232.273 506.136C230.801 506.904 229.116 507.288 227.217 507.288ZM227.217 502.456C227.921 502.456 228.54 502.296 229.073 501.976C229.628 501.656 230.065 501.187 230.385 500.568C230.705 499.928 230.865 499.171 230.865 498.296C230.865 497.421 230.705 496.685 230.385 496.088C230.065 495.469 229.628 495 229.073 494.68C228.54 494.36 227.921 494.2 227.217 494.2C226.534 494.2 225.916 494.36 225.361 494.68C224.828 495 224.39 495.469 224.049 496.088C223.729 496.685 223.569 497.421 223.569 498.296C223.569 499.171 223.729 499.928 224.049 500.568C224.39 501.187 224.828 501.656 225.361 501.976C225.916 502.296 226.534 502.456 227.217 502.456Z" fill="white"/>
<ellipse cx="129.5" cy="104.5" rx="109.5" ry="104.5" fill="url(#paint4_linear_84_174)"/>
<path d="M63.4 115V92.6H82.12V97.496H69.64V101.112H75.432C78.1627 101.112 80.2427 101.688 81.672 102.84C83.1227 103.992 83.848 105.656 83.848 107.832C83.848 110.072 83.0373 111.832 81.416 113.112C79.7947 114.371 77.5227 115 74.6 115H63.4ZM69.64 110.456H74.184C75.2293 110.456 76.0293 110.243 76.584 109.816C77.16 109.389 77.448 108.781 77.448 107.992C77.448 106.413 76.36 105.624 74.184 105.624H69.64V110.456ZM95.3108 115.288C93.4121 115.288 91.7268 114.904 90.2548 114.136C88.7828 113.368 87.6201 112.312 86.7668 110.968C85.9348 109.603 85.5188 108.045 85.5188 106.296C85.5188 104.547 85.9348 103 86.7668 101.656C87.6201 100.312 88.7828 99.2667 90.2548 98.52C91.7268 97.752 93.4121 97.368 95.3108 97.368C97.2094 97.368 98.8948 97.752 100.367 98.52C101.86 99.2667 103.023 100.312 103.855 101.656C104.687 103 105.103 104.547 105.103 106.296C105.103 108.045 104.687 109.603 103.855 110.968C103.023 112.312 101.86 113.368 100.367 114.136C98.8948 114.904 97.2094 115.288 95.3108 115.288ZM95.3108 110.456C96.0148 110.456 96.6334 110.296 97.1668 109.976C97.7214 109.656 98.1588 109.187 98.4788 108.568C98.7988 107.928 98.9588 107.171 98.9588 106.296C98.9588 105.421 98.7988 104.685 98.4788 104.088C98.1588 103.469 97.7214 103 97.1668 102.68C96.6334 102.36 96.0148 102.2 95.3108 102.2C94.6281 102.2 94.0094 102.36 93.4548 102.68C92.9214 103 92.4841 103.469 92.1428 104.088C91.8228 104.685 91.6628 105.421 91.6628 106.296C91.6628 107.171 91.8228 107.928 92.1428 108.568C92.4841 109.187 92.9214 109.656 93.4548 109.976C94.0094 110.296 94.6281 110.456 95.3108 110.456ZM107.954 115V97.656H114.002V104.088H120.242V97.656H126.322V115H120.242V108.92H114.002V115H107.954ZM133.623 121.496C132.706 121.496 131.778 121.347 130.839 121.048C129.922 120.771 129.175 120.397 128.599 119.928L130.711 115.672C131.074 115.992 131.49 116.237 131.959 116.408C132.45 116.6 132.93 116.696 133.399 116.696C134.06 116.696 134.583 116.547 134.967 116.248C135.351 115.949 135.682 115.48 135.959 114.84L136.759 112.824L137.239 112.216L143.127 97.656H148.919L141.431 115.704C140.834 117.197 140.14 118.36 139.351 119.192C138.583 120.045 137.719 120.643 136.759 120.984C135.82 121.325 134.775 121.496 133.623 121.496ZM135.991 115.736L128.343 97.656H134.583L140.215 111.672L135.991 115.736ZM159.127 115.288C157.207 115.288 155.49 114.904 153.975 114.136C152.482 113.368 151.308 112.312 150.455 110.968C149.602 109.603 149.175 108.045 149.175 106.296C149.175 104.547 149.602 103 150.455 101.656C151.308 100.312 152.482 99.2667 153.975 98.52C155.49 97.752 157.207 97.368 159.127 97.368C161.09 97.368 162.786 97.784 164.215 98.616C165.644 99.448 166.658 100.621 167.255 102.136L162.551 104.536C162.146 103.725 161.644 103.139 161.047 102.776C160.45 102.392 159.799 102.2 159.095 102.2C158.391 102.2 157.751 102.36 157.175 102.68C156.599 103 156.14 103.469 155.799 104.088C155.479 104.685 155.319 105.421 155.319 106.296C155.319 107.192 155.479 107.949 155.799 108.568C156.14 109.187 156.599 109.656 157.175 109.976C157.751 110.296 158.391 110.456 159.095 110.456C159.799 110.456 160.45 110.275 161.047 109.912C161.644 109.528 162.146 108.931 162.551 108.12L167.255 110.52C166.658 112.035 165.644 113.208 164.215 114.04C162.786 114.872 161.09 115.288 159.127 115.288ZM188.07 115V97.656H194.118V115H188.07ZM179.718 103.032C182.022 103.053 183.739 103.565 184.87 104.568C186.022 105.571 186.598 107 186.598 108.856C186.598 110.776 185.937 112.291 184.614 113.4C183.291 114.488 181.403 115.021 178.95 115H169.798V97.656H175.846V103.032H179.718ZM178.342 110.84C179.067 110.84 179.633 110.669 180.038 110.328C180.443 109.987 180.646 109.464 180.646 108.76C180.646 108.035 180.443 107.523 180.038 107.224C179.654 106.925 179.089 106.765 178.342 106.744H175.846V110.808L178.342 110.84Z" fill="white"/>
<defs>
<linearGradient id="paint0_linear_84_174" x1="590" y1="284" x2="140" y2="284" gradientUnits="userSpaceOnUse">
<stop stop-color="#70000B"/>
<stop offset="1" stop-color="#3D0015"/>
</linearGradient>
<linearGradient id="paint1_linear_84_174" x1="725" y1="299" x2="545" y2="299" gradientUnits="userSpaceOnUse">
<stop stop-color="#70000B"/>
<stop offset="1" stop-color="#3D0015"/>
</linearGradient>
<linearGradient id="paint2_linear_84_174" x1="250" y1="501" x2="0" y2="501" gradientUnits="userSpaceOnUse">
<stop stop-color="#70000B"/>
<stop offset="1" stop-color="#3D0015"/>
</linearGradient>
<linearGradient id="paint3_linear_84_174" x1="650" y1="134" x2="500" y2="134" gradientUnits="userSpaceOnUse">
<stop stop-color="#70000B"/>
<stop offset="1" stop-color="#3D0015"/>
</linearGradient>
<linearGradient id="paint4_linear_84_174" x1="239" y1="104.5" x2="20" y2="104.5" gradientUnits="userSpaceOnUse">
<stop stop-color="#70000B"/>
<stop offset="1" stop-color="#3D0015"/>
</linearGradient>
<clipPath id="clip0_84_174">
<rect width="358.741" height="346" fill="white" transform="translate(186 111)"/>
</clipPath>
</defs>
</svg>
