<svg width="6" height="22" viewBox="0 0 6 22" fill="none" xmlns="http://www.w3.org/2000/svg">
<path d="M0 3C0 1.346 1.346 0 3 0C4.654 0 6 1.346 6 3C6 4.654 4.654 6 3 6C1.346 6 0 4.654 0 3ZM3 8C1.346 8 0 9.346 0 11C0 12.654 1.346 14 3 14C4.654 14 6 12.654 6 11C6 9.346 4.654 8 3 8ZM3 16C1.346 16 0 17.346 0 19C0 20.654 1.346 22 3 22C4.654 22 6 20.654 6 19C6 17.346 4.654 16 3 16Z" fill="url(#paint0_linear_71_4)"/>
<defs>
<linearGradient id="paint0_linear_71_4" x1="6" y1="11" x2="0" y2="11" gradientUnits="userSpaceOnUse">
<stop stop-color="#3D0015"/>
<stop offset="1" stop-color="#70000B"/>
</linearGradient>
</defs>
</svg>
