<!-- icon666.com - MILLIONS OF FREE VECTOR ICONS --><svg viewBox="0 0 512 512" xmlns="http://www.w3.org/2000/svg"><path d="m512 241h-30.4375c-3.5625-54.738281-26.566406-105.710938-65.710938-144.851562-39.140624-39.144532-90.113281-62.152344-144.851562-65.710938v-30.4375h-30v30.4375c-54.738281 3.5625-105.710938 26.566406-144.851562 65.710938-39.144532 39.140624-62.152344 90.113281-65.710938 144.851562h-30.4375v30h30.4375c3.5625 54.738281 26.566406 105.710938 65.710938 144.851562 39.140624 39.144532 90.113281 62.152344 144.851562 65.710938v30.4375h30v-30.4375c54.738281-3.5625 105.710938-26.566406 144.851562-65.710938 39.144532-39.140624 62.152344-90.113281 65.710938-144.851562h30.4375zm-60.503906 0h-34.496094c-7.136719-77.214844-68.785156-138.863281-146-146v-34.496094c96.179688 7.308594 173.1875 84.316406 180.496094 180.496094zm-195.496094 40.066406c-13.820312 0-25.066406-11.246094-25.066406-25.066406s11.246094-25.066406 25.066406-25.066406 25.066406 11.246094 25.066406 25.066406-11.246094 25.066406-25.066406 25.066406zm-15-78.039062c-18.320312 5.195312-32.777344 19.652344-37.972656 37.972656h-77.867188c6.90625-60.65625 55.183594-108.933594 115.839844-115.839844zm-37.972656 67.972656c5.195312 18.320312 19.652344 32.777344 37.972656 37.972656v77.867188c-60.65625-6.90625-108.933594-55.183594-115.839844-115.839844zm67.972656 37.972656c18.320312-5.195312 32.777344-19.652344 37.972656-37.972656h77.867188c-6.90625 60.65625-55.183594 108.933594-115.839844 115.839844zm37.972656-67.972656c-5.195312-18.320312-19.652344-32.777344-37.972656-37.972656v-77.867188c60.65625 6.90625 108.933594 55.183594 115.839844 115.839844zm-67.972656-180.496094v34.496094c-77.214844 7.136719-138.863281 68.785156-146 146h-34.496094c7.308594-96.179688 84.316406-173.1875 180.496094-180.496094zm-180.496094 210.496094h34.496094c7.136719 77.214844 68.785156 138.863281 146 146v34.496094c-96.179688-7.308594-173.1875-84.316406-180.496094-180.496094zm210.496094 180.496094v-34.496094c77.214844-7.136719 138.863281-68.785156 145.996094-146h34.5c-7.308594 96.179688-84.316406 173.1875-180.496094 180.496094zm0 0" fill="#000000" style="fill: rgb(255, 255, 255);"></path></svg>