<svg width="488" height="502" viewBox="0 0 488 502" fill="none" xmlns="http://www.w3.org/2000/svg">
<path d="M0 20C0 8.95429 8.95431 0 20 0H351.948C361.197 0 369.24 6.34218 371.396 15.3365L482.086 476.956C485.101 489.531 475.569 501.619 462.637 501.619H20C8.95431 501.619 0 492.665 0 481.619V20Z" fill="url(#paint0_linear_66_179)"/>
<g clip-path="url(#clip0_66_179)">
<path d="M358.741 420.62H0V420.792H358.741V420.62Z" fill="#EBEBEB"/>
<path d="M82.7492 427.21H64.9026V427.382H82.7492V427.21Z" fill="#EBEBEB"/>
<path d="M129.027 425.332H109.296V425.504H129.027V425.332Z" fill="#EBEBEB"/>
<path d="M75.8916 433.636H34.2002V433.809H75.8916V433.636Z" fill="#EBEBEB"/>
<path d="M322.796 432.474H307.301V432.646H322.796V432.474Z" fill="#EBEBEB"/>
<path d="M174.148 426.667H154.109V426.84H174.148V426.667Z" fill="#EBEBEB"/>
<path d="M266.106 429.552H215.723V429.724H266.106V429.552Z" fill="#EBEBEB"/>
<path d="M170.053 389.758H31.5082C29.2503 389.758 27.4128 387.986 27.4128 385.808V197.977C27.4128 195.799 29.2503 194.027 31.5082 194.027H170.053C172.31 194.027 174.148 195.799 174.148 197.977V385.808C174.148 387.985 172.31 389.758 170.053 389.758ZM31.5082 194.201C29.3486 194.201 27.5922 195.895 27.5922 197.977V385.808C27.5922 387.891 29.3486 389.585 31.5082 389.585H170.053C172.212 389.585 173.969 387.891 173.969 385.808V197.977C173.969 195.895 172.212 194.2 170.053 194.2L31.5082 194.201Z" fill="#EBEBEB"/>
<path d="M325.242 389.758H186.697C184.44 389.758 182.603 387.986 182.603 385.808V197.977C182.603 195.799 184.44 194.027 186.697 194.027H325.242C327.5 194.027 329.337 195.799 329.337 197.977V385.808C329.338 387.985 327.5 389.758 325.242 389.758ZM186.697 194.201C184.539 194.201 182.782 195.895 182.782 197.977V385.808C182.782 387.891 184.539 389.585 186.697 389.585H325.242C327.401 389.585 329.158 387.891 329.158 385.808V197.977C329.158 195.895 327.401 194.2 325.242 194.2L186.697 194.201Z" fill="#EBEBEB"/>
<path d="M145.33 347.837H36.2729V399.199H145.33V347.837Z" fill="#F5F5F5"/>
<path d="M141.025 395.047V351.99H40.5777L40.5777 395.047H141.025Z" fill="#EBEBEB"/>
<path d="M141.025 395.047V351.989H90.1241V395.047H141.025Z" fill="#E6E6E6"/>
<path d="M109.296 395.047L109.296 351.989H90.1238V395.047H109.296Z" fill="#E0E0E0"/>
<path d="M47.0171 380.746V366.291H45.6618V380.746H47.0171Z" fill="#E0E0E0"/>
<path d="M141.025 355.372V351.989H40.5775V355.372H141.025Z" fill="#E0E0E0"/>
<path d="M145.33 399.199H167.013V347.838H145.33V399.199Z" fill="#E6E6E6"/>
<path d="M143.228 420.619H145.33V399.199H141.703L143.228 420.619Z" fill="#F5F5F5"/>
<path d="M38.3745 420.619H36.2729V399.199H39.8998L38.3745 420.619Z" fill="#F5F5F5"/>
<path d="M164.912 420.619H167.014V399.199H163.386L164.912 420.619Z" fill="#E6E6E6"/>
<path d="M60.0583 420.619H57.9568V399.199H61.5837L60.0583 420.619Z" fill="#E6E6E6"/>
<path d="M191.857 420.619H187.718V401.747H197.389L191.857 420.619Z" fill="#F5F5F5"/>
<path d="M265.754 420.619H269.894V401.747H260.222L265.754 420.619Z" fill="#E0E0E0"/>
<path d="M320.083 420.619H324.222V401.747H314.55L320.083 420.619Z" fill="#E0E0E0"/>
<path d="M196.329 410.532H315.611C320.347 410.532 324.222 406.794 324.222 402.226V382.361C324.222 377.793 320.347 374.056 315.611 374.056H196.329C191.593 374.056 187.718 377.793 187.718 382.361V402.226C187.718 406.794 191.593 410.532 196.329 410.532Z" fill="#F5F5F5"/>
<path d="M246.186 420.62H242.047V401.748H251.718L246.186 420.62Z" fill="#F5F5F5"/>
<path d="M250.658 410.532H315.611C320.347 410.532 324.222 406.794 324.222 402.226V382.361C324.222 377.793 320.347 374.056 315.611 374.056H250.658C245.922 374.056 242.047 377.793 242.047 382.361V402.226C242.047 406.794 245.922 410.532 250.658 410.532Z" fill="#E0E0E0"/>
<path d="M204.255 374.01H307.686C310.531 374.01 312.859 371.764 312.859 369.02C312.859 366.275 310.531 364.03 307.686 364.03H204.255C201.409 364.03 199.081 366.275 199.081 369.02C199.081 371.764 201.409 374.01 204.255 374.01Z" fill="#FAFAFA"/>
<path d="M246.143 374.01H307.685C310.531 374.01 312.859 371.764 312.859 369.02C312.859 366.275 310.531 364.03 307.685 364.03H246.143C243.298 364.03 240.97 366.275 240.97 369.02C240.97 371.764 243.298 374.01 246.143 374.01Z" fill="#EBEBEB"/>
<path d="M53.036 274.09C48.8308 287.74 51.7833 325.302 51.7833 325.302L56.5431 325.323C58.8878 313.078 54.9947 282.425 53.036 274.09Z" fill="#E6E6E6"/>
<path d="M51.368 324.771H54.8757C54.8757 324.771 50.4116 292.017 45.7874 281.252C44.5117 295.554 51.368 324.771 51.368 324.771Z" fill="#F0F0F0"/>
<path d="M77.1313 279.483C78.7908 291.659 68.7533 325.163 68.7533 325.163L63.9633 325.181C63.911 314.259 73.5934 286.918 77.1313 279.483Z" fill="#E6E6E6"/>
<path d="M69.272 324.689L65.7449 324.689C65.7449 324.689 76.3973 295.473 83.0728 285.872C81.6636 298.629 69.272 324.689 69.272 324.689Z" fill="#F0F0F0"/>
<path d="M69.7127 276.17C72.7391 289.248 63.4556 325.233 63.4556 325.233L57.6813 325.253C56.6976 313.522 66.0722 284.155 69.7127 276.17Z" fill="#E6E6E6"/>
<path d="M59.5366 324.771H56.0288C56.0288 324.771 56.7262 292.017 60.112 281.252C63.0321 295.554 59.5366 324.771 59.5366 324.771Z" fill="#F0F0F0"/>
<path d="M45.7874 322.695C45.7874 336.58 52.3193 347.837 60.3766 347.837C68.4339 347.837 74.9652 336.58 74.9652 322.695H45.7874Z" fill="#F0F0F0"/>
<path d="M300.625 214.358H115.574V324.689H300.625V214.358Z" fill="#F0F0F0"/>
<path d="M300.624 324.69H301.741V214.359H300.624V324.69Z" fill="#E6E6E6"/>
<path d="M296.32 320.537V218.511L119.88 218.511L119.88 320.537H296.32Z" fill="#FAFAFA"/>
<path d="M183.586 303.012C202.761 303.012 218.306 288.019 218.306 269.524C218.306 251.03 202.761 236.037 183.586 236.037C164.41 236.037 148.865 251.03 148.865 269.524C148.865 288.019 164.41 303.012 183.586 303.012Z" fill="#EBEBEB"/>
<path d="M232.614 303.357C213.271 303.357 197.534 288.18 197.534 269.524C197.534 250.869 213.271 235.691 232.614 235.691C251.957 235.691 267.693 250.869 267.693 269.524C267.693 288.18 251.957 303.357 232.614 303.357ZM232.614 236.383C213.667 236.383 198.252 251.25 198.252 269.524C198.252 287.799 213.666 302.665 232.614 302.665C251.561 302.665 266.976 287.799 266.976 269.524C266.976 251.251 251.561 236.383 232.614 236.383Z" fill="#E0E0E0"/>
<path d="M179.37 451.872C256.2 451.872 318.482 448.364 318.482 444.037C318.482 439.709 256.2 436.201 179.37 436.201C102.541 436.201 40.2585 439.709 40.2585 444.037C40.2585 448.364 102.541 451.872 179.37 451.872Z" fill="#F5F5F5"/>
<path d="M252.891 371.725H72.0854C67.3501 371.725 63.3422 367.988 63.1786 363.421L58.5179 233.018C58.3543 228.451 62.0952 224.714 66.8306 224.714H247.636C252.371 224.714 256.379 228.451 256.543 233.018L261.204 363.422C261.367 367.988 257.626 371.725 252.891 371.725Z" fill="white"/>
<path d="M56.9545 269.618L57.672 269.595L57.5278 265.558L56.8103 265.582L56.9545 269.618ZM56.6704 261.666L57.3879 261.642L56.9294 248.831L56.2119 248.855L56.6704 261.666Z" fill="#407BFF"/>
<path d="M252.903 372.071H72.0977C67.1521 372.071 62.9908 368.191 62.82 363.421L58.1592 233.018C57.9885 228.248 61.8729 224.368 66.8185 224.368H247.624C252.57 224.368 256.731 228.248 256.902 233.018L261.562 363.422C261.733 368.191 257.849 372.071 252.903 372.071ZM66.8429 225.06C62.2934 225.06 58.7196 228.63 58.876 233.018L63.5368 363.422C63.6939 367.81 67.5231 371.38 72.0719 371.38H252.877C257.427 371.38 261.001 367.81 260.844 363.422L256.183 233.018C256.026 228.63 252.197 225.06 247.648 225.06H66.8429Z" fill="#407BFF"/>
<path d="M172.442 251.362L147.558 327.785L165.767 331.209C167.194 331.477 168.591 330.802 169.205 329.562C172.705 322.497 177.698 316.215 183.861 311.139C189.949 306.124 194.279 299.073 195.672 290.765C198.482 274.002 188.405 257.689 172.442 251.362Z" fill="#407BFF"/>
<path d="M156.926 349.344C161.289 350.165 165.434 347.416 166.135 343.235C166.836 339.054 163.839 334.962 159.475 334.142L146.293 331.664L141.482 346.441L156.926 349.344Z" fill="#407BFF"/>
<g opacity="0.2">
<path d="M155.526 241.949C114.894 252.2 114.251 268.604 127.959 299.559C130.382 305.032 132.506 310.621 134.281 316.302C143.816 346.802 156.65 286.286 163.456 260.725C163.638 260.044 163.839 259.37 164.101 258.716C166.672 252.267 172.134 245.599 164.365 242.474C161.546 241.339 158.42 241.219 155.526 241.949Z" fill="#407BFF"/>
<path d="M134.258 339.466C129.882 337.944 125.901 335.793 128.978 332C129.791 330.998 130.862 330.22 132.023 329.609C137.579 326.687 139.65 328.558 140.677 334.404C141.298 337.942 137.779 340.69 134.258 339.466Z" fill="#407BFF"/>
<path d="M197.349 345.526C186.048 357.772 173.009 367.711 163.453 351.466C160.928 347.173 159.553 342.37 158.899 337.528C155.773 314.359 165.265 310.37 187.671 316.112C201.235 319.588 206.443 335.671 197.349 345.526Z" fill="#407BFF"/>
<path d="M99.1117 244.564C107.584 247.201 115.346 251.068 109.723 258.534C108.237 260.507 106.243 262.068 104.065 263.313C93.643 269.271 89.5534 265.816 87.1864 254.679C85.7536 247.936 92.2934 242.443 99.1117 244.564Z" fill="#407BFF"/>
<path d="M229.414 330.632C227.971 330.632 226.687 329.659 225.839 328.803C224.736 327.692 223.85 326.419 223.202 325.019C222.075 322.577 222.831 320.43 225.173 319.418C227.397 318.457 231.026 318.44 233.012 320.091C233.886 320.816 234.793 322.164 234.148 324.458L234.048 324.814C233.639 326.284 233.215 327.804 232.292 329.044C231.623 329.942 230.732 330.498 229.784 330.61C229.66 330.626 229.536 330.632 229.414 330.632ZM228.677 319.441C227.527 319.441 226.384 319.664 225.487 320.052C223.502 320.909 222.893 322.668 223.858 324.757C224.469 326.08 225.307 327.284 226.35 328.334C227.152 329.143 228.388 330.072 229.673 329.923C230.417 329.835 231.158 329.363 231.705 328.628C232.555 327.487 232.962 326.026 233.355 324.614L233.454 324.256C233.894 322.696 233.591 321.469 232.555 320.609C231.572 319.792 230.12 319.441 228.677 319.441Z" fill="#407BFF"/>
</g>
<path d="M146.782 324.452L137.089 322.63C135.504 322.332 134.261 321.042 134.064 319.493C133.079 311.734 130.423 304.061 126.17 296.688C121.68 288.906 120.278 279.907 122.222 271.35C126.405 252.94 144.281 241.632 163.798 245.04C166.422 245.499 169.023 246.235 171.527 247.227L171.881 247.368L171.769 247.712L146.782 324.452ZM156.921 245.211C140.594 245.211 126.609 255.683 123.008 271.541C121.106 279.913 122.477 288.717 126.87 296.331C131.175 303.794 133.864 311.564 134.862 319.426C135.016 320.633 135.984 321.639 137.217 321.87L146.221 323.563L170.889 247.804C168.548 246.903 166.125 246.23 163.681 245.803C161.398 245.404 159.138 245.211 156.921 245.211Z" fill="#407BFF"/>
<path d="M172.902 244.229L172.135 243.975L175.802 232.716L176.569 232.97L172.902 244.229Z" fill="#407BFF"/>
<path d="M175.942 246.065L175.536 245.384L178.053 244.05L178.458 244.732L175.942 246.065Z" fill="#407BFF"/>
<path d="M137.395 353.278L136.628 353.023L139.138 345.313L139.905 345.569L137.395 353.278Z" fill="#407BFF"/>
<path d="M140.706 343.108L139.494 342.88C137.278 342.463 135.327 341.238 134.003 339.43C132.679 337.621 132.145 335.456 132.502 333.332C133.24 328.932 137.58 326.053 142.171 326.918L145.759 327.592L140.706 343.108ZM133.294 333.482C132.972 335.402 133.455 337.361 134.653 338.998C135.852 340.634 137.617 341.743 139.621 342.12L140.145 342.219L144.715 328.181L142.044 327.679C137.887 326.894 133.963 329.499 133.294 333.482Z" fill="#407BFF"/>
<path d="M258.898 309.509C258.739 312.603 256.985 323.003 257.942 325.079C258.898 327.155 261.609 332.921 270.298 332.768C278.988 332.614 277.632 319.85 277.632 319.85L258.898 309.509Z" fill="#263238"/>
<path opacity="0.2" d="M258.898 309.509C258.739 312.603 256.985 323.003 257.942 325.079C258.898 327.155 261.609 332.921 270.298 332.768C278.988 332.614 277.632 319.85 277.632 319.85L258.898 309.509Z" fill="black"/>
<path d="M286.246 278.688C286.531 280.406 286.898 282.019 287.259 283.671C287.64 285.31 288.063 286.937 288.492 288.562C288.919 290.188 289.395 291.802 289.889 293.41C290.135 294.215 290.391 295.017 290.657 295.815C290.937 296.625 291.147 297.357 291.546 298.355C292.291 300.158 293.225 301.647 294.168 303.127C295.132 304.584 296.138 305.981 297.194 307.332C298.254 308.681 299.339 309.997 300.444 311.294C301.579 312.573 302.7 313.838 303.918 315.067L306.309 313.251C305.418 311.872 304.49 310.484 303.615 309.084C302.713 307.699 301.836 306.303 300.998 304.896C300.156 303.493 299.333 302.09 298.586 300.681C297.837 299.288 297.149 297.847 296.708 296.543C296.52 295.986 296.319 295.11 296.114 294.334L295.52 291.954L294.377 287.187C294.003 285.597 293.657 284.001 293.313 282.406C292.951 280.825 292.625 279.199 292.299 277.663L286.246 278.688Z" fill="#FFC3BD"/>
<path d="M305.501 312.355L310.59 315.545L305.718 316.916C305.718 316.916 301.98 314.654 302.675 312.339L305.501 312.355Z" fill="#FFC3BD"/>
<path d="M312.029 318.384L308.401 319.919L305.718 316.916L310.59 315.545L312.029 318.384Z" fill="#FFC3BD"/>
<path d="M279.569 438.487C280.124 438.487 280.731 438.376 281.156 438.279C281.211 438.267 281.254 438.224 281.264 438.17C281.274 438.116 281.249 438.061 281.202 438.031C280.996 437.9 279.171 436.764 278.472 437.069C278.361 437.118 278.222 437.224 278.189 437.456C278.143 437.763 278.223 438.008 278.425 438.186C278.68 438.411 279.107 438.487 279.569 438.487ZM280.753 438.083C279.707 438.285 278.92 438.25 278.615 437.982C278.486 437.869 278.438 437.709 278.47 437.494C278.486 437.378 278.542 437.34 278.588 437.32C278.958 437.156 280.01 437.649 280.753 438.083Z" fill="#407BFF"/>
<path d="M281.123 438.282C281.147 438.282 281.172 438.276 281.195 438.264C281.238 438.239 281.266 438.194 281.266 438.145C281.266 438.074 281.257 436.405 280.604 435.848C280.431 435.699 280.228 435.637 280.002 435.664C279.645 435.706 279.548 435.922 279.522 436.047C279.387 436.7 280.479 437.951 281.053 438.264C281.075 438.277 281.099 438.282 281.123 438.282ZM280.101 435.933C280.218 435.933 280.321 435.972 280.416 436.053C280.805 436.387 280.939 437.323 280.972 437.879C280.401 437.439 279.72 436.5 279.802 436.101C279.816 436.036 279.854 435.958 280.036 435.937C280.058 435.934 280.08 435.933 280.101 435.933Z" fill="#407BFF"/>
<path d="M240.877 435.062C240.927 435.068 240.976 435.049 241.007 435.01C241.045 434.964 241.047 434.901 241.014 434.851C240.853 434.609 239.438 432.527 238.589 432.425C238.571 432.423 238.553 432.421 238.534 432.42C238.372 432.418 238.234 432.488 238.137 432.623C237.974 432.848 237.934 433.085 238.017 433.326C238.292 434.127 239.909 434.754 240.849 435.056C240.859 435.059 240.868 435.06 240.877 435.062ZM238.563 432.697C239.031 432.754 239.933 433.814 240.539 434.66C239.273 434.209 238.442 433.688 238.288 433.239C238.234 433.082 238.261 432.931 238.371 432.779C238.414 432.719 238.463 432.694 238.53 432.695C238.54 432.695 238.551 432.696 238.563 432.697Z" fill="#407BFF"/>
<path d="M240.877 435.062C240.887 435.063 240.898 435.063 240.909 435.062C240.959 435.058 241.003 435.028 241.024 434.984C241.054 434.924 241.734 433.503 241.39 432.614C241.284 432.342 241.095 432.146 240.826 432.031C240.465 431.876 240.266 431.991 240.163 432.112C239.729 432.629 240.318 434.393 240.78 435.006C240.803 435.037 240.839 435.057 240.877 435.062ZM240.547 432.233C240.59 432.239 240.643 432.253 240.711 432.282C240.909 432.367 241.044 432.507 241.123 432.71C241.349 433.293 241.042 434.201 240.869 434.628C240.455 433.909 240.124 432.595 240.384 432.285C240.399 432.266 240.438 432.22 240.547 432.233Z" fill="#407BFF"/>
<path d="M280.692 257.953C279.993 261.392 278.422 268.895 280.917 271.191C280.917 271.191 279.942 274.68 273.316 274.68C266.03 274.68 269.834 271.191 269.834 271.191C273.811 270.275 273.709 267.43 273.015 264.757L280.692 257.953Z" fill="#FFC3BD"/>
<path d="M271.435 250.176C271.478 250.18 271.522 250.173 271.564 250.157C271.71 250.101 271.781 249.941 271.722 249.8C271.138 248.39 269.851 248.128 269.797 248.117C269.643 248.087 269.493 248.185 269.462 248.333C269.431 248.481 269.531 248.626 269.684 248.656C269.726 248.664 270.727 248.879 271.194 250.004C271.235 250.104 271.331 250.167 271.435 250.176Z" fill="#263238"/>
<path d="M269.009 252.996C269.009 252.996 267.776 254.802 266.682 255.573C267.186 256.264 268.307 256.222 268.307 256.222L269.009 252.996Z" fill="#ED847E"/>
<path d="M269.604 252.295C269.505 252.753 269.173 253.073 268.863 253.01C268.553 252.947 268.382 252.526 268.482 252.068C268.581 251.611 268.914 251.291 269.223 251.354C269.533 251.416 269.704 251.838 269.604 252.295Z" fill="#263238"/>
<path d="M269.355 251.406L268.284 250.859C268.284 250.859 268.682 251.836 269.355 251.406Z" fill="#263238"/>
<path d="M246.913 437.988L241.272 435.989L245.695 423.255L251.337 425.255L246.913 437.988Z" fill="#FFC3BD"/>
<path d="M288.112 438.145H282.102L282.574 424.723H288.583L288.112 438.145Z" fill="#FFC3BD"/>
<path d="M281.626 437.475H288.377C288.623 437.475 288.822 437.639 288.857 437.87L289.626 443.022C289.705 443.557 289.229 444.062 288.662 444.053C286.308 444.015 285.174 443.881 282.205 443.881C280.378 443.881 277.709 444.064 275.187 444.064C272.72 444.064 272.53 441.658 273.581 441.44C278.29 440.463 279.034 439.116 280.621 437.831C280.908 437.599 281.266 437.475 281.626 437.475Z" fill="#263238"/>
<path d="M241.58 434.53L247.446 437.755C247.66 437.873 247.748 438.111 247.659 438.328L245.681 443.171C245.476 443.674 244.802 443.886 244.315 443.607C242.29 442.448 241.373 441.79 238.794 440.372C237.207 439.499 233.831 437.853 231.639 436.648C229.496 435.469 230.566 433.289 231.591 433.601C236.184 435.002 238.486 434.717 240.524 434.359C240.892 434.295 241.268 434.358 241.58 434.53Z" fill="#263238"/>
<path opacity="0.2" d="M245.695 423.26L243.324 430.081L249.058 431.823L251.339 425.26L245.695 423.26Z" fill="black"/>
<path opacity="0.2" d="M288.585 424.726H282.572L282.332 431.645H288.344L288.585 424.726Z" fill="black"/>
<path d="M256.363 278.36C255.21 280.964 253.948 283.638 252.673 286.226C252.019 287.516 251.346 288.798 250.649 290.045C249.96 291.299 249.229 292.52 248.465 293.667C248.09 294.256 247.688 294.787 247.291 295.325C247.038 295.675 246.97 295.716 246.814 295.828C246.664 295.915 246.346 295.982 245.882 295.923C245.424 295.869 244.859 295.716 244.286 295.483C241.956 294.525 239.485 292.724 237.295 290.935L234.989 292.851C235.472 293.535 235.95 294.125 236.472 294.733C236.987 295.335 237.523 295.926 238.103 296.487C239.258 297.617 240.521 298.686 242.087 299.589C242.875 300.032 243.74 300.45 244.78 300.718C245.808 300.98 247.074 301.099 248.398 300.749C249.715 300.425 250.915 299.52 251.601 298.704C252.142 298.074 252.686 297.439 253.161 296.796C255.118 294.225 256.663 291.564 258.127 288.862C259.583 286.152 260.882 283.445 262.061 280.575L256.363 278.36Z" fill="#FFC3BD"/>
<path d="M235.35 297.409C234.884 297.526 234.407 297.261 234.276 296.814L228.974 278.941L231.637 278.276L235.99 296.386C236.102 296.839 235.817 297.293 235.35 297.409Z" fill="#407BFF"/>
<path d="M237.136 277.36C232.659 278.478 228.183 279.594 223.706 280.712C222.609 277.99 222.003 275.078 221.922 272.104C226.398 270.986 230.875 269.869 235.351 268.751C235.432 271.726 236.038 274.639 237.136 277.36Z" fill="#407BFF"/>
<path opacity="0.3" d="M237.136 277.36C232.659 278.478 230.035 279.132 225.559 280.25C224.462 277.528 223.856 274.616 223.775 271.641C228.251 270.524 230.875 269.869 235.351 268.751C235.432 271.726 236.038 274.639 237.136 277.36Z" fill="white"/>
<path d="M236.954 281.317L225.856 284.087C225.212 284.248 224.555 283.875 224.389 283.254L223.614 280.367C223.447 279.746 223.834 279.112 224.478 278.951L235.576 276.181C236.219 276.021 236.876 276.394 237.043 277.014L237.818 279.902C237.984 280.523 237.598 281.156 236.954 281.317Z" fill="#407BFF"/>
<path d="M238.146 291.743L236.366 287.677L232.282 290.362C232.282 290.362 234.296 293.343 236.689 293.705L238.146 291.743Z" fill="#FFC3BD"/>
<path d="M233.551 285.518L229.889 287.623L232.283 290.362L236.366 287.677L233.551 285.518Z" fill="#FFC3BD"/>
<path d="M285.898 253.953C284.317 259.501 283.771 261.881 280.201 264.169C274.831 267.612 268.112 264.527 267.942 258.636C267.789 253.334 270.399 245.153 276.589 244.072C282.688 243.005 287.478 248.406 285.898 253.953Z" fill="#FFC3BD"/>
<path d="M284.047 240.442C283.136 241.785 283.108 243.559 283.836 245.399C281.853 243.794 278.558 237.71 277.564 235.938C277.343 236.602 276.696 239.594 277.244 241.782C275.593 241.47 273.324 240.111 270.381 236.186C270.09 238.795 270.854 241.758 272.141 244.495C271.068 244.417 270.125 244.275 269.457 243.936C269.102 245.211 272.28 247.46 272.28 247.46C272.28 247.46 270.375 249.917 272.28 254.772C273.706 257.667 274.175 263.757 277.752 264.452C279.216 264.736 280.879 263.785 282.39 262.505C282.381 262.672 282.331 263.102 282.061 263.648C282.946 263.009 283.886 261.742 283.935 261.051C283.936 261.05 283.937 261.049 283.938 261.048C283.942 261.359 283.903 261.959 283.623 262.722C284.584 261.864 285.531 260.427 285.899 259.327C286.044 259.842 286.154 260.46 286.119 261.11C287.319 259.547 287.949 258.139 288.057 256.839C288.487 257.596 288.944 258.565 288.952 259.294C290.463 256.871 290.948 254.248 289.991 252.36C290.239 252.06 290.44 251.706 290.568 251.28C291.558 247.969 286.628 246.982 284.047 240.442Z" fill="#263238"/>
<path d="M271.547 252.747C270.946 253.731 270.726 254.926 270.798 255.875C270.905 257.303 272.022 257.336 272.881 256.37C273.655 255.5 274.532 253.709 273.996 252.549C273.468 251.408 272.233 251.623 271.547 252.747Z" fill="#FFC3BD"/>
<path d="M268.993 307.66C268.993 307.66 272.481 347.443 276.1 369.865C279.023 387.975 281.327 430.306 281.327 430.306H289.522C289.522 430.306 292.676 391.585 291.192 373.673C287.437 328.348 295.572 322.311 286.955 307.66H268.993Z" fill="#407BFF"/>
<path opacity="0.6" d="M268.993 307.66C268.993 307.66 272.481 347.443 276.1 369.865C279.023 387.975 281.327 430.306 281.327 430.306H289.522C289.522 430.306 292.676 391.585 291.192 373.673C287.437 328.348 295.572 322.311 286.955 307.66H268.993Z" fill="white"/>
<path opacity="0.4" d="M277.244 321.094C275.091 324.084 272.222 327.519 271.282 331.194C271.978 337.906 272.796 345.332 273.686 352.473C275.967 346.522 279.898 334.623 277.244 321.094Z" fill="#407BFF"/>
<path d="M262.547 307.66C262.547 307.66 256.158 352.208 253.431 369.691C250.595 387.877 242.738 428.249 242.738 428.249L250.555 430.389C250.555 430.389 265.02 391.378 267.92 373.526C271.082 354.063 284.16 307.66 284.16 307.66H262.547Z" fill="#407BFF"/>
<path opacity="0.6" d="M262.547 307.66C262.547 307.66 256.158 352.208 253.431 369.691C250.595 387.877 242.738 428.249 242.738 428.249L250.555 430.389C250.555 430.389 265.02 391.378 267.92 373.526C271.082 354.063 284.16 307.66 284.16 307.66H262.547Z" fill="white"/>
<path d="M241.559 428.14L251.552 431.049L253.194 427.473L242.502 424.348L241.559 428.14Z" fill="#263238"/>
<path d="M280.206 430.462H290.644L291.192 426.93L280.146 426.569L280.206 430.462Z" fill="#263238"/>
<path d="M287.321 306.278L288.421 308.385C288.507 308.548 288.306 308.715 288.024 308.715H262.426C262.206 308.715 262.024 308.611 262.01 308.478L261.79 306.37C261.775 306.224 261.965 306.101 262.206 306.101H286.923C287.105 306.101 287.266 306.173 287.321 306.278Z" fill="#407BFF"/>
<path d="M284.001 308.943H284.664C284.796 308.943 284.896 308.877 284.887 308.798L284.576 306.06C284.567 305.98 284.452 305.915 284.32 305.915H283.658C283.526 305.915 283.425 305.981 283.435 306.06L283.745 308.798C283.754 308.878 283.869 308.943 284.001 308.943Z" fill="#407BFF"/>
<path opacity="0.6" d="M284.001 308.943H284.664C284.796 308.943 284.896 308.877 284.887 308.798L284.576 306.06C284.567 305.98 284.452 305.915 284.32 305.915H283.658C283.526 305.915 283.425 305.981 283.435 306.06L283.745 308.798C283.754 308.878 283.869 308.943 284.001 308.943Z" fill="white"/>
<path d="M267.956 308.943H268.618C268.75 308.943 268.851 308.877 268.841 308.798L268.531 306.06C268.521 305.98 268.406 305.915 268.274 305.915H267.612C267.48 305.915 267.38 305.981 267.389 306.06L267.7 308.798C267.708 308.878 267.824 308.943 267.956 308.943Z" fill="#407BFF"/>
<path opacity="0.6" d="M267.956 308.943H268.618C268.75 308.943 268.851 308.877 268.841 308.798L268.531 306.06C268.521 305.98 268.406 305.915 268.274 305.915H267.612C267.48 305.915 267.38 305.981 267.389 306.06L267.7 308.798C267.708 308.878 267.824 308.943 267.956 308.943Z" fill="white"/>
<path d="M288.441 271.077C295.918 274.245 293.883 287.438 296.527 290.361C300.971 295.278 298.373 314.626 298.373 314.626C293.431 310.372 288.985 298.058 285.406 290.691C285.406 290.691 284.219 269.289 288.441 271.077Z" fill="#263238"/>
<path opacity="0.2" d="M292.842 287.079L291.514 304.102C292.827 306.821 294.198 309.389 295.626 311.444C294.836 304.579 294.32 293.147 292.842 287.079Z" fill="black"/>
<path d="M272.059 270.122C264.878 270.641 263.818 269.527 260.772 270.682C257.228 272.025 258.96 293.812 258.96 316.467C258.96 326.764 282.176 338.611 282.176 338.611C282.176 338.611 288.441 333.075 288.441 326.462C292.619 326.462 293.975 322.541 293.177 314.628C292.458 307.483 294.277 284.142 293.055 279.467C291.833 274.793 289.807 269.718 286.221 270.41C282.638 271.102 281.214 269.461 272.059 270.122Z" fill="#263238"/>
<path opacity="0.2" d="M266.711 270.267C267.884 271.094 275.022 273.525 279.207 273.669C283.392 273.813 283.991 271.334 283.991 271.334L266.711 270.267Z" fill="black"/>
<path d="M266.251 270.756C264.831 270.362 267.009 269.219 267.299 268.296C267.589 267.374 266.966 265.298 268.553 265.874C270.14 266.451 279.547 265.067 282.776 266.643C286.004 268.22 286.443 269.988 284.37 271.448C282.296 272.909 274.77 273.121 266.251 270.756Z" fill="#263238"/>
<path opacity="0.2" d="M262.966 287.681C262.22 283.148 260.275 286.539 258.575 290.843C258.639 295.445 258.768 300.572 258.862 305.942C261.179 301.264 264.042 294.248 262.966 287.681Z" fill="black"/>
<path d="M261.79 270.392C257.114 271.042 253.211 283.807 250.568 286.731C246.124 291.648 250.927 308.716 250.927 308.716C255.87 304.461 259.871 298.058 263.45 290.691C263.45 290.691 266.354 269.758 261.79 270.392Z" fill="#263238"/>
<path opacity="0.2" d="M287.439 287.328C287.439 287.328 288.314 319.312 288.443 326.46C289.613 326.46 290.567 326.149 291.306 325.533L287.439 287.328Z" fill="black"/>
</g>
<path d="M31.4715 82.71V75.855H28.4565L28.4115 76.995C28.3915 77.605 28.3515 78.175 28.2915 78.705C28.2415 79.235 28.1665 79.72 28.0665 80.16C27.9765 80.6 27.8515 80.98 27.6915 81.3C27.5415 81.61 27.3565 81.85 27.1365 82.02L23.9715 81.645C24.3215 81.655 24.6065 81.54 24.8265 81.3C25.0565 81.05 25.2365 80.705 25.3665 80.265C25.5065 79.825 25.6065 79.305 25.6665 78.705C25.7365 78.105 25.7865 77.45 25.8165 76.74L25.9365 73.5H34.3965V82.71H31.4715ZM23.6565 86.115V81.645H35.8215V86.115H33.1065V84H26.3865V86.115H23.6565ZM41.0378 84.135C40.1478 84.135 39.3578 83.955 38.6678 83.595C37.9778 83.235 37.4328 82.74 37.0328 82.11C36.6428 81.47 36.4478 80.74 36.4478 79.92C36.4478 79.1 36.6428 78.375 37.0328 77.745C37.4328 77.115 37.9778 76.625 38.6678 76.275C39.3578 75.915 40.1478 75.735 41.0378 75.735C41.9278 75.735 42.7178 75.915 43.4078 76.275C44.1078 76.625 44.6528 77.115 45.0428 77.745C45.4328 78.375 45.6278 79.1 45.6278 79.92C45.6278 80.74 45.4328 81.47 45.0428 82.11C44.6528 82.74 44.1078 83.235 43.4078 83.595C42.7178 83.955 41.9278 84.135 41.0378 84.135ZM41.0378 81.87C41.3678 81.87 41.6578 81.795 41.9078 81.645C42.1678 81.495 42.3728 81.275 42.5228 80.985C42.6728 80.685 42.7478 80.33 42.7478 79.92C42.7478 79.51 42.6728 79.165 42.5228 78.885C42.3728 78.595 42.1678 78.375 41.9078 78.225C41.6578 78.075 41.3678 78 41.0378 78C40.7178 78 40.4278 78.075 40.1678 78.225C39.9178 78.375 39.7128 78.595 39.5528 78.885C39.4028 79.165 39.3278 79.51 39.3278 79.92C39.3278 80.33 39.4028 80.685 39.5528 80.985C39.7128 81.275 39.9178 81.495 40.1678 81.645C40.4278 81.795 40.7178 81.87 41.0378 81.87ZM51.0444 84.135C50.1444 84.135 49.3394 83.955 48.6294 83.595C47.9294 83.235 47.3794 82.74 46.9794 82.11C46.5794 81.47 46.3794 80.74 46.3794 79.92C46.3794 79.1 46.5794 78.375 46.9794 77.745C47.3794 77.115 47.9294 76.625 48.6294 76.275C49.3394 75.915 50.1444 75.735 51.0444 75.735C51.9644 75.735 52.7594 75.93 53.4294 76.32C54.0994 76.71 54.5744 77.26 54.8544 77.97L52.6494 79.095C52.4594 78.715 52.2244 78.44 51.9444 78.27C51.6644 78.09 51.3594 78 51.0294 78C50.6994 78 50.3994 78.075 50.1294 78.225C49.8594 78.375 49.6444 78.595 49.4844 78.885C49.3344 79.165 49.2594 79.51 49.2594 79.92C49.2594 80.34 49.3344 80.695 49.4844 80.985C49.6444 81.275 49.8594 81.495 50.1294 81.645C50.3994 81.795 50.6994 81.87 51.0294 81.87C51.3594 81.87 51.6644 81.785 51.9444 81.615C52.2244 81.435 52.4594 81.155 52.6494 80.775L54.8544 81.9C54.5744 82.61 54.0994 83.16 53.4294 83.55C52.7594 83.94 51.9644 84.135 51.0444 84.135ZM57.8907 84V77.505L58.5057 78.135H55.2657V75.87H63.3357V78.135H60.0957L60.7257 77.505V84H57.8907ZM64.44 84V75.87H67.275V80.13L70.68 75.87H73.305V84H70.455V79.725L67.08 84H64.44ZM75.2212 84V75.87H82.0312V78.135H77.4412L78.0562 77.52V84H75.2212ZM87.961 84V82.485L87.766 82.11V79.32C87.766 78.87 87.626 78.525 87.346 78.285C87.076 78.035 86.641 77.91 86.041 77.91C85.651 77.91 85.256 77.975 84.856 78.105C84.456 78.225 84.116 78.395 83.836 78.615L82.876 76.68C83.336 76.38 83.886 76.15 84.526 75.99C85.176 75.82 85.821 75.735 86.461 75.735C87.781 75.735 88.801 76.04 89.521 76.65C90.251 77.25 90.616 78.195 90.616 79.485V84H87.961ZM85.561 84.135C84.911 84.135 84.361 84.025 83.911 83.805C83.461 83.585 83.116 83.285 82.876 82.905C82.646 82.525 82.531 82.1 82.531 81.63C82.531 81.13 82.656 80.7 82.906 80.34C83.166 79.97 83.561 79.69 84.091 79.5C84.621 79.3 85.306 79.2 86.146 79.2H88.066V80.685H86.536C86.076 80.685 85.751 80.76 85.561 80.91C85.381 81.06 85.291 81.26 85.291 81.51C85.291 81.76 85.386 81.96 85.576 82.11C85.766 82.26 86.026 82.335 86.356 82.335C86.666 82.335 86.946 82.26 87.196 82.11C87.456 81.95 87.646 81.71 87.766 81.39L88.156 82.44C88.006 83 87.711 83.425 87.271 83.715C86.841 83.995 86.271 84.135 85.561 84.135ZM92.3306 84V75.87H95.1656V80.13L98.5706 75.87H101.196V84H98.3456V79.725L94.9706 84H92.3306ZM96.5606 75.09C95.6006 75.09 94.8906 74.89 94.4306 74.49C93.9806 74.08 93.7506 73.455 93.7406 72.615H95.5856C95.5956 72.945 95.6706 73.205 95.8106 73.395C95.9606 73.575 96.2056 73.665 96.5456 73.665C96.8856 73.665 97.1356 73.575 97.2956 73.395C97.4556 73.205 97.5356 72.945 97.5356 72.615H99.4106C99.4106 73.455 99.1756 74.08 98.7056 74.49C98.2456 74.89 97.5306 75.09 96.5606 75.09ZM104.927 84V77.505L105.542 78.135H102.302V75.87H110.372V78.135H107.132L107.762 77.505V84H104.927ZM115.339 84.135C114.379 84.135 113.539 83.955 112.819 83.595C112.109 83.225 111.554 82.725 111.154 82.095C110.764 81.455 110.569 80.73 110.569 79.92C110.569 79.11 110.759 78.39 111.139 77.76C111.529 77.12 112.064 76.625 112.744 76.275C113.424 75.915 114.189 75.735 115.039 75.735C115.839 75.735 116.569 75.9 117.229 76.23C117.889 76.55 118.414 77.025 118.804 77.655C119.194 78.285 119.389 79.05 119.389 79.95C119.389 80.05 119.384 80.165 119.374 80.295C119.364 80.425 119.354 80.545 119.344 80.655H112.909V79.155H117.829L116.749 79.575C116.759 79.205 116.689 78.885 116.539 78.615C116.399 78.345 116.199 78.135 115.939 77.985C115.689 77.835 115.394 77.76 115.054 77.76C114.714 77.76 114.414 77.835 114.154 77.985C113.904 78.135 113.709 78.35 113.569 78.63C113.429 78.9 113.359 79.22 113.359 79.59V80.025C113.359 80.425 113.439 80.77 113.599 81.06C113.769 81.35 114.009 81.575 114.319 81.735C114.629 81.885 114.999 81.96 115.429 81.96C115.829 81.96 116.169 81.905 116.449 81.795C116.739 81.675 117.024 81.495 117.304 81.255L118.804 82.815C118.414 83.245 117.934 83.575 117.364 83.805C116.794 84.025 116.119 84.135 115.339 84.135ZM125.26 84V75.87H133.66V84H130.825V77.52L131.455 78.135H127.48L128.095 77.52V84H125.26ZM139.607 84.135C138.717 84.135 137.927 83.955 137.237 83.595C136.547 83.235 136.002 82.74 135.602 82.11C135.212 81.47 135.017 80.74 135.017 79.92C135.017 79.1 135.212 78.375 135.602 77.745C136.002 77.115 136.547 76.625 137.237 76.275C137.927 75.915 138.717 75.735 139.607 75.735C140.497 75.735 141.287 75.915 141.977 76.275C142.677 76.625 143.222 77.115 143.612 77.745C144.002 78.375 144.197 79.1 144.197 79.92C144.197 80.74 144.002 81.47 143.612 82.11C143.222 82.74 142.677 83.235 141.977 83.595C141.287 83.955 140.497 84.135 139.607 84.135ZM139.607 81.87C139.937 81.87 140.227 81.795 140.477 81.645C140.737 81.495 140.942 81.275 141.092 80.985C141.242 80.685 141.317 80.33 141.317 79.92C141.317 79.51 141.242 79.165 141.092 78.885C140.942 78.595 140.737 78.375 140.477 78.225C140.227 78.075 139.937 78 139.607 78C139.287 78 138.997 78.075 138.737 78.225C138.487 78.375 138.282 78.595 138.122 78.885C137.972 79.165 137.897 79.51 137.897 79.92C137.897 80.33 137.972 80.685 138.122 80.985C138.282 81.275 138.487 81.495 138.737 81.645C138.997 81.795 139.287 81.87 139.607 81.87ZM149.614 84.135C148.714 84.135 147.909 83.955 147.199 83.595C146.499 83.235 145.949 82.74 145.549 82.11C145.149 81.47 144.949 80.74 144.949 79.92C144.949 79.1 145.149 78.375 145.549 77.745C145.949 77.115 146.499 76.625 147.199 76.275C147.909 75.915 148.714 75.735 149.614 75.735C150.534 75.735 151.329 75.93 151.999 76.32C152.669 76.71 153.144 77.26 153.424 77.97L151.219 79.095C151.029 78.715 150.794 78.44 150.514 78.27C150.234 78.09 149.929 78 149.599 78C149.269 78 148.969 78.075 148.699 78.225C148.429 78.375 148.214 78.595 148.054 78.885C147.904 79.165 147.829 79.51 147.829 79.92C147.829 80.34 147.904 80.695 148.054 80.985C148.214 81.275 148.429 81.495 148.699 81.645C148.969 81.795 149.269 81.87 149.599 81.87C149.929 81.87 150.234 81.785 150.514 81.615C150.794 81.435 151.029 81.155 151.219 80.775L153.424 81.9C153.144 82.61 152.669 83.16 151.999 83.55C151.329 83.94 150.534 84.135 149.614 84.135ZM156.46 84V77.505L157.075 78.135H153.835V75.87H161.905V78.135H158.665L159.295 77.505V84H156.46ZM167.824 84V82.485L167.629 82.11V79.32C167.629 78.87 167.489 78.525 167.209 78.285C166.939 78.035 166.504 77.91 165.904 77.91C165.514 77.91 165.119 77.975 164.719 78.105C164.319 78.225 163.979 78.395 163.699 78.615L162.739 76.68C163.199 76.38 163.749 76.15 164.389 75.99C165.039 75.82 165.684 75.735 166.324 75.735C167.644 75.735 168.664 76.04 169.384 76.65C170.114 77.25 170.479 78.195 170.479 79.485V84H167.824ZM165.424 84.135C164.774 84.135 164.224 84.025 163.774 83.805C163.324 83.585 162.979 83.285 162.739 82.905C162.509 82.525 162.394 82.1 162.394 81.63C162.394 81.13 162.519 80.7 162.769 80.34C163.029 79.97 163.424 79.69 163.954 79.5C164.484 79.3 165.169 79.2 166.009 79.2H167.929V80.685H166.399C165.939 80.685 165.614 80.76 165.424 80.91C165.244 81.06 165.154 81.26 165.154 81.51C165.154 81.76 165.249 81.96 165.439 82.11C165.629 82.26 165.889 82.335 166.219 82.335C166.529 82.335 166.809 82.26 167.059 82.11C167.319 81.95 167.509 81.71 167.629 81.39L168.019 82.44C167.869 83 167.574 83.425 167.134 83.715C166.704 83.995 166.134 84.135 165.424 84.135ZM172.194 84V75.87H176.559C177.609 75.87 178.429 76.055 179.019 76.425C179.609 76.785 179.904 77.305 179.904 77.985C179.904 78.635 179.629 79.155 179.079 79.545C178.539 79.925 177.809 80.115 176.889 80.115L177.144 79.515C178.134 79.515 178.879 79.7 179.379 80.07C179.889 80.43 180.144 80.96 180.144 81.66C180.144 82.38 179.864 82.95 179.304 83.37C178.754 83.79 177.909 84 176.769 84H172.194ZM174.744 82.155H176.514C176.864 82.155 177.124 82.095 177.294 81.975C177.464 81.845 177.549 81.655 177.549 81.405C177.549 81.145 177.464 80.955 177.294 80.835C177.134 80.715 176.884 80.655 176.544 80.655H174.744V82.155ZM174.744 79.14H176.304C176.644 79.14 176.894 79.08 177.054 78.96C177.214 78.83 177.294 78.645 177.294 78.405C177.294 78.165 177.214 77.99 177.054 77.88C176.894 77.76 176.644 77.7 176.304 77.7H174.744V79.14ZM180.759 84L180.879 81.675C180.949 81.685 181.014 81.695 181.074 81.705C181.134 81.705 181.189 81.705 181.239 81.705C181.489 81.705 181.684 81.645 181.824 81.525C181.974 81.395 182.084 81.22 182.154 81C182.234 80.78 182.289 80.525 182.319 80.235C182.359 79.935 182.384 79.61 182.394 79.26L182.514 75.87H189.864V84H187.014V77.49L187.644 78.135H184.389L184.989 77.46L184.899 79.38C184.869 80.11 184.804 80.775 184.704 81.375C184.614 81.965 184.469 82.47 184.269 82.89C184.069 83.31 183.794 83.635 183.444 83.865C183.104 84.085 182.669 84.195 182.139 84.195C181.949 84.195 181.734 84.175 181.494 84.135C181.264 84.105 181.019 84.06 180.759 84ZM195.964 84.135C195.004 84.135 194.164 83.955 193.444 83.595C192.734 83.225 192.179 82.725 191.779 82.095C191.389 81.455 191.194 80.73 191.194 79.92C191.194 79.11 191.384 78.39 191.764 77.76C192.154 77.12 192.689 76.625 193.369 76.275C194.049 75.915 194.814 75.735 195.664 75.735C196.464 75.735 197.194 75.9 197.854 76.23C198.514 76.55 199.039 77.025 199.429 77.655C199.819 78.285 200.014 79.05 200.014 79.95C200.014 80.05 200.009 80.165 199.999 80.295C199.989 80.425 199.979 80.545 199.969 80.655H193.534V79.155H198.454L197.374 79.575C197.384 79.205 197.314 78.885 197.164 78.615C197.024 78.345 196.824 78.135 196.564 77.985C196.314 77.835 196.019 77.76 195.679 77.76C195.339 77.76 195.039 77.835 194.779 77.985C194.529 78.135 194.334 78.35 194.194 78.63C194.054 78.9 193.984 79.22 193.984 79.59V80.025C193.984 80.425 194.064 80.77 194.224 81.06C194.394 81.35 194.634 81.575 194.944 81.735C195.254 81.885 195.624 81.96 196.054 81.96C196.454 81.96 196.794 81.905 197.074 81.795C197.364 81.675 197.649 81.495 197.929 81.255L199.429 82.815C199.039 83.245 198.559 83.575 197.989 83.805C197.419 84.025 196.744 84.135 195.964 84.135ZM201.52 84V75.87H204.355V78.885H207.28V75.87H210.13V84H207.28V81.15H204.355V84H201.52ZM212.052 84V75.87H214.887V78.885H217.812V75.87H220.662V84H217.812V81.15H214.887V84H212.052ZM231.15 84V75.87H233.985V84H231.15ZM227.235 78.39C228.315 78.4 229.12 78.64 229.65 79.11C230.19 79.58 230.46 80.25 230.46 81.12C230.46 82.02 230.15 82.73 229.53 83.25C228.91 83.76 228.025 84.01 226.875 84H222.585V75.87H225.42V78.39H227.235ZM226.59 82.05C226.93 82.05 227.195 81.97 227.385 81.81C227.575 81.65 227.67 81.405 227.67 81.075C227.67 80.735 227.575 80.495 227.385 80.355C227.205 80.215 226.94 80.14 226.59 80.13H225.42V82.035L226.59 82.05ZM234.955 84L238.69 79.095L238.63 80.715L235.045 75.87H238.255L240.265 78.735L239.065 78.795L241.195 75.87H244.21L240.625 80.61V79.05L244.315 84H241.06L238.96 80.94L240.16 81.105L238.045 84H234.955ZM249.64 84V75.87H252.475V81.72H255.115V75.87H257.965V84H249.64ZM256.45 85.68V83.985L257.08 84H255.115V81.72H259.09V85.68H256.45ZM264.504 84.135C263.544 84.135 262.704 83.955 261.984 83.595C261.274 83.225 260.719 82.725 260.319 82.095C259.929 81.455 259.734 80.73 259.734 79.92C259.734 79.11 259.924 78.39 260.304 77.76C260.694 77.12 261.229 76.625 261.909 76.275C262.589 75.915 263.354 75.735 264.204 75.735C265.004 75.735 265.734 75.9 266.394 76.23C267.054 76.55 267.579 77.025 267.969 77.655C268.359 78.285 268.554 79.05 268.554 79.95C268.554 80.05 268.549 80.165 268.539 80.295C268.529 80.425 268.519 80.545 268.509 80.655H262.074V79.155H266.994L265.914 79.575C265.924 79.205 265.854 78.885 265.704 78.615C265.564 78.345 265.364 78.135 265.104 77.985C264.854 77.835 264.559 77.76 264.219 77.76C263.879 77.76 263.579 77.835 263.319 77.985C263.069 78.135 262.874 78.35 262.734 78.63C262.594 78.9 262.524 79.22 262.524 79.59V80.025C262.524 80.425 262.604 80.77 262.764 81.06C262.934 81.35 263.174 81.575 263.484 81.735C263.794 81.885 264.164 81.96 264.594 81.96C264.994 81.96 265.334 81.905 265.614 81.795C265.904 81.675 266.189 81.495 266.469 81.255L267.969 82.815C267.579 83.245 267.099 83.575 266.529 83.805C265.959 84.025 265.284 84.135 264.504 84.135ZM269.206 84L269.326 81.675C269.396 81.685 269.461 81.695 269.521 81.705C269.581 81.705 269.636 81.705 269.686 81.705C269.936 81.705 270.131 81.645 270.271 81.525C270.421 81.395 270.531 81.22 270.601 81C270.681 80.78 270.736 80.525 270.766 80.235C270.806 79.935 270.831 79.61 270.841 79.26L270.961 75.87H278.311V84H275.461V77.49L276.091 78.135H272.836L273.436 77.46L273.346 79.38C273.316 80.11 273.251 80.775 273.151 81.375C273.061 81.965 272.916 82.47 272.716 82.89C272.516 83.31 272.241 83.635 271.891 83.865C271.551 84.085 271.116 84.195 270.586 84.195C270.396 84.195 270.181 84.175 269.941 84.135C269.711 84.105 269.466 84.06 269.206 84ZM284.411 84.135C283.451 84.135 282.611 83.955 281.891 83.595C281.181 83.225 280.626 82.725 280.226 82.095C279.836 81.455 279.641 80.73 279.641 79.92C279.641 79.11 279.831 78.39 280.211 77.76C280.601 77.12 281.136 76.625 281.816 76.275C282.496 75.915 283.261 75.735 284.111 75.735C284.911 75.735 285.641 75.9 286.301 76.23C286.961 76.55 287.486 77.025 287.876 77.655C288.266 78.285 288.461 79.05 288.461 79.95C288.461 80.05 288.456 80.165 288.446 80.295C288.436 80.425 288.426 80.545 288.416 80.655H281.981V79.155H286.901L285.821 79.575C285.831 79.205 285.761 78.885 285.611 78.615C285.471 78.345 285.271 78.135 285.011 77.985C284.761 77.835 284.466 77.76 284.126 77.76C283.786 77.76 283.486 77.835 283.226 77.985C282.976 78.135 282.781 78.35 282.641 78.63C282.501 78.9 282.431 79.22 282.431 79.59V80.025C282.431 80.425 282.511 80.77 282.671 81.06C282.841 81.35 283.081 81.575 283.391 81.735C283.701 81.885 284.071 81.96 284.501 81.96C284.901 81.96 285.241 81.905 285.521 81.795C285.811 81.675 286.096 81.495 286.376 81.255L287.876 82.815C287.486 83.245 287.006 83.575 286.436 83.805C285.866 84.025 285.191 84.135 284.411 84.135ZM289.967 84V75.87H292.802V80.13L296.207 75.87H298.832V84H295.982V79.725L292.607 84H289.967ZM294.197 75.09C293.237 75.09 292.527 74.89 292.067 74.49C291.617 74.08 291.387 73.455 291.377 72.615H293.222C293.232 72.945 293.307 73.205 293.447 73.395C293.597 73.575 293.842 73.665 294.182 73.665C294.522 73.665 294.772 73.575 294.932 73.395C295.092 73.205 295.172 72.945 295.172 72.615H297.047C297.047 73.455 296.812 74.08 296.342 74.49C295.882 74.89 295.167 75.09 294.197 75.09Z" fill="white"/>
<path d="M25.7165 52.86C26.5032 53.0867 27.1432 53.16 27.6365 53.08C28.1432 52.9867 28.5898 52.6533 28.9765 52.08L29.6565 51.08L29.9965 50.7L34.3565 42H38.2165L32.4165 52.82C31.8432 53.8867 31.1565 54.7133 30.3565 55.3C29.5698 55.8867 28.7032 56.22 27.7565 56.3C26.8098 56.38 25.8165 56.2067 24.7765 55.78L25.7165 52.86ZM29.9365 53.88L23.5365 42H27.7165L32.0965 51.08L29.9365 53.88ZM38.8567 56V45.16H50.0567V56H46.2767V47.36L47.1167 48.18H41.8167L42.6367 47.36V56H38.8567ZM59.4657 56.18C58.5457 56.18 57.7591 55.98 57.1057 55.58C56.4524 55.1667 55.9524 54.5533 55.6057 53.74C55.2724 52.9133 55.1057 51.86 55.1057 50.58C55.1057 49.2867 55.2657 48.2333 55.5857 47.42C55.9057 46.5933 56.3857 45.98 57.0257 45.58C57.6791 45.18 58.4924 44.98 59.4657 44.98C60.4524 44.98 61.3457 45.2133 62.1457 45.68C62.9591 46.1333 63.5991 46.78 64.0657 47.62C64.5457 48.4467 64.7857 49.4333 64.7857 50.58C64.7857 51.7267 64.5457 52.72 64.0657 53.56C63.5991 54.4 62.9591 55.0467 62.1457 55.5C61.3457 55.9533 60.4524 56.18 59.4657 56.18ZM52.6457 59.88V45.16H56.2657V47L56.2457 50.58L56.4457 54.18V59.88H52.6457ZM58.6657 53.16C59.0924 53.16 59.4724 53.06 59.8057 52.86C60.1524 52.66 60.4257 52.3667 60.6257 51.98C60.8391 51.5933 60.9457 51.1267 60.9457 50.58C60.9457 50.0333 60.8391 49.5667 60.6257 49.18C60.4257 48.7933 60.1524 48.5 59.8057 48.3C59.4724 48.1 59.0924 48 58.6657 48C58.2391 48 57.8524 48.1 57.5057 48.3C57.1724 48.5 56.8991 48.7933 56.6857 49.18C56.4857 49.5667 56.3857 50.0333 56.3857 50.58C56.3857 51.1267 56.4857 51.5933 56.6857 51.98C56.8991 52.3667 57.1724 52.66 57.5057 52.86C57.8524 53.06 58.2391 53.16 58.6657 53.16ZM72.7962 56V53.98L72.5362 53.48V49.76C72.5362 49.16 72.3495 48.7 71.9762 48.38C71.6162 48.0467 71.0362 47.88 70.2362 47.88C69.7162 47.88 69.1895 47.9667 68.6562 48.14C68.1229 48.3 67.6695 48.5267 67.2962 48.82L66.0162 46.24C66.6295 45.84 67.3629 45.5333 68.2162 45.32C69.0829 45.0933 69.9429 44.98 70.7962 44.98C72.5562 44.98 73.9162 45.3867 74.8762 46.2C75.8495 47 76.3362 48.26 76.3362 49.98V56H72.7962ZM69.5962 56.18C68.7295 56.18 67.9962 56.0333 67.3962 55.74C66.7962 55.4467 66.3362 55.0467 66.0162 54.54C65.7095 54.0333 65.5562 53.4667 65.5562 52.84C65.5562 52.1733 65.7229 51.6 66.0562 51.12C66.4029 50.6267 66.9295 50.2533 67.6362 50C68.3429 49.7333 69.2562 49.6 70.3762 49.6H72.9362V51.58H70.8962C70.2829 51.58 69.8495 51.68 69.5962 51.88C69.3562 52.08 69.2362 52.3467 69.2362 52.68C69.2362 53.0133 69.3629 53.28 69.6162 53.48C69.8695 53.68 70.2162 53.78 70.6562 53.78C71.0695 53.78 71.4429 53.68 71.7762 53.48C72.1229 53.2667 72.3762 52.9467 72.5362 52.52L73.0562 53.92C72.8562 54.6667 72.4629 55.2333 71.8762 55.62C71.3029 55.9933 70.5429 56.18 69.5962 56.18ZM78.6223 56V45.16H84.4423C85.8423 45.16 86.9356 45.4067 87.7223 45.9C88.509 46.38 88.9023 47.0733 88.9023 47.98C88.9023 48.8467 88.5356 49.54 87.8023 50.06C87.0823 50.5667 86.109 50.82 84.8823 50.82L85.2223 50.02C86.5423 50.02 87.5356 50.2667 88.2023 50.76C88.8823 51.24 89.2223 51.9467 89.2223 52.88C89.2223 53.84 88.849 54.6 88.1023 55.16C87.369 55.72 86.2423 56 84.7223 56H78.6223ZM82.0223 53.54H84.3823C84.849 53.54 85.1956 53.46 85.4223 53.3C85.649 53.1267 85.7623 52.8733 85.7623 52.54C85.7623 52.1933 85.649 51.94 85.4223 51.78C85.209 51.62 84.8756 51.54 84.4223 51.54H82.0223V53.54ZM82.0223 49.52H84.1023C84.5556 49.52 84.889 49.44 85.1023 49.28C85.3156 49.1067 85.4223 48.86 85.4223 48.54C85.4223 48.22 85.3156 47.9867 85.1023 47.84C84.889 47.68 84.5556 47.6 84.1023 47.6H82.0223V49.52ZM90.0418 56L90.2018 52.9C90.2951 52.9133 90.3818 52.9267 90.4618 52.94C90.5418 52.94 90.6151 52.94 90.6818 52.94C91.0151 52.94 91.2751 52.86 91.4618 52.7C91.6618 52.5267 91.8085 52.2933 91.9018 52C92.0085 51.7067 92.0818 51.3667 92.1218 50.98C92.1751 50.58 92.2085 50.1467 92.2218 49.68L92.3818 45.16H102.182V56H98.3818V47.32L99.2218 48.18H94.8818L95.6818 47.28L95.5618 49.84C95.5218 50.8133 95.4351 51.7 95.3018 52.5C95.1818 53.2867 94.9885 53.96 94.7218 54.52C94.4551 55.08 94.0885 55.5133 93.6218 55.82C93.1685 56.1133 92.5885 56.26 91.8818 56.26C91.6285 56.26 91.3418 56.2333 91.0218 56.18C90.7151 56.14 90.3885 56.08 90.0418 56ZM111.556 56V52.48L112.056 53.06H109.296C107.682 53.06 106.409 52.7333 105.476 52.08C104.542 51.4133 104.076 50.4667 104.076 49.24C104.076 47.9333 104.562 46.9267 105.536 46.22C106.509 45.5133 107.822 45.16 109.476 45.16H114.936V56H111.556ZM103.896 56L106.756 51.88H110.596L107.916 56H103.896ZM111.556 51.34V47.22L112.056 48.16H109.556C109.049 48.16 108.656 48.26 108.376 48.46C108.096 48.6467 107.956 48.9533 107.956 49.38C107.956 50.2067 108.482 50.62 109.536 50.62H112.056L111.556 51.34ZM117.489 56V45.16H121.269V50.84L125.809 45.16H129.309V56H125.509V50.3L121.009 56H117.489ZM123.129 44.12C121.849 44.12 120.903 43.8533 120.289 43.32C119.689 42.7733 119.383 41.94 119.369 40.82H121.829C121.843 41.26 121.943 41.6067 122.129 41.86C122.329 42.1 122.656 42.22 123.109 42.22C123.563 42.22 123.896 42.1 124.109 41.86C124.323 41.6067 124.429 41.26 124.429 40.82H126.929C126.929 41.94 126.616 42.7733 125.989 43.32C125.376 43.8533 124.423 44.12 123.129 44.12ZM134.284 56V47.34L135.104 48.18H130.784V45.16H141.544V48.18H137.224L138.064 47.34V56H134.284ZM148.167 56.18C146.887 56.18 145.767 55.94 144.807 55.46C143.86 54.9667 143.12 54.3 142.587 53.46C142.067 52.6067 141.807 51.64 141.807 50.56C141.807 49.48 142.06 48.52 142.567 47.68C143.087 46.8267 143.8 46.1667 144.707 45.7C145.614 45.22 146.634 44.98 147.767 44.98C148.834 44.98 149.807 45.2 150.687 45.64C151.567 46.0667 152.267 46.7 152.787 47.54C153.307 48.38 153.567 49.4 153.567 50.6C153.567 50.7333 153.56 50.8867 153.547 51.06C153.534 51.2333 153.52 51.3933 153.507 51.54H144.927V49.54H151.487L150.047 50.1C150.06 49.6067 149.967 49.18 149.767 48.82C149.58 48.46 149.314 48.18 148.967 47.98C148.634 47.78 148.24 47.68 147.787 47.68C147.334 47.68 146.934 47.78 146.587 47.98C146.254 48.18 145.994 48.4667 145.807 48.84C145.62 49.2 145.527 49.6267 145.527 50.12V50.7C145.527 51.2333 145.634 51.6933 145.847 52.08C146.074 52.4667 146.394 52.7667 146.807 52.98C147.22 53.18 147.714 53.28 148.287 53.28C148.82 53.28 149.274 53.2067 149.647 53.06C150.034 52.9 150.414 52.66 150.787 52.34L152.787 54.42C152.267 54.9933 151.627 55.4333 150.867 55.74C150.107 56.0333 149.207 56.18 148.167 56.18ZM165.336 56.22C164.496 56.22 163.656 56.1467 162.816 56C161.976 55.84 161.176 55.6 160.416 55.28L161.396 52.72C161.982 52.96 162.596 53.14 163.236 53.26C163.876 53.38 164.529 53.44 165.196 53.44C165.596 53.44 165.942 53.4067 166.236 53.34C166.529 53.26 166.756 53.1467 166.916 53C167.089 52.84 167.176 52.6533 167.176 52.44C167.176 52.1467 167.069 51.9333 166.856 51.8C166.642 51.6667 166.316 51.6 165.876 51.6H163.536V49.38H165.536C165.829 49.38 166.076 49.3533 166.276 49.3C166.476 49.2333 166.622 49.14 166.716 49.02C166.822 48.8867 166.876 48.7333 166.876 48.56C166.876 48.3867 166.809 48.24 166.676 48.12C166.556 47.9867 166.362 47.8867 166.096 47.82C165.842 47.74 165.509 47.7 165.096 47.7C164.562 47.7 164.002 47.7667 163.416 47.9C162.842 48.02 162.249 48.1933 161.636 48.42L160.756 45.92C161.476 45.6267 162.209 45.3933 162.956 45.22C163.702 45.0467 164.436 44.9533 165.156 44.94C166.196 44.9133 167.129 45.02 167.956 45.26C168.796 45.4867 169.462 45.8333 169.956 46.3C170.449 46.7533 170.696 47.3267 170.696 48.02C170.696 48.5533 170.536 49.0267 170.216 49.44C169.896 49.8533 169.462 50.1867 168.916 50.44C168.369 50.68 167.756 50.8 167.076 50.8L167.156 50.1C168.342 50.1 169.276 50.34 169.956 50.82C170.649 51.2867 170.996 51.9267 170.996 52.74C170.996 53.4867 170.742 54.12 170.236 54.64C169.729 55.16 169.049 55.5533 168.196 55.82C167.342 56.0867 166.389 56.22 165.336 56.22ZM179.261 56V53.98L179.001 53.48V49.76C179.001 49.16 178.814 48.7 178.441 48.38C178.081 48.0467 177.501 47.88 176.701 47.88C176.181 47.88 175.654 47.9667 175.121 48.14C174.588 48.3 174.134 48.5267 173.761 48.82L172.481 46.24C173.094 45.84 173.828 45.5333 174.681 45.32C175.548 45.0933 176.408 44.98 177.261 44.98C179.021 44.98 180.381 45.3867 181.341 46.2C182.314 47 182.801 48.26 182.801 49.98V56H179.261ZM176.061 56.18C175.194 56.18 174.461 56.0333 173.861 55.74C173.261 55.4467 172.801 55.0467 172.481 54.54C172.174 54.0333 172.021 53.4667 172.021 52.84C172.021 52.1733 172.188 51.6 172.521 51.12C172.868 50.6267 173.394 50.2533 174.101 50C174.808 49.7333 175.721 49.6 176.841 49.6H179.401V51.58H177.361C176.748 51.58 176.314 51.68 176.061 51.88C175.821 52.08 175.701 52.3467 175.701 52.68C175.701 53.0133 175.828 53.28 176.081 53.48C176.334 53.68 176.681 53.78 177.121 53.78C177.534 53.78 177.908 53.68 178.241 53.48C178.588 53.2667 178.841 52.9467 179.001 52.52L179.521 53.92C179.321 54.6667 178.928 55.2333 178.341 55.62C177.768 55.9933 177.008 56.18 176.061 56.18ZM192.607 54.34V48.18H189.707L189.667 49.22C189.64 49.74 189.607 50.2333 189.567 50.7C189.54 51.1533 189.474 51.5667 189.367 51.94C189.26 52.3133 189.107 52.6333 188.907 52.9C188.707 53.1533 188.44 53.34 188.107 53.46L184.387 52.96C184.747 52.96 185.04 52.86 185.267 52.66C185.507 52.4467 185.694 52.1533 185.827 51.78C185.96 51.4067 186.054 50.98 186.107 50.5C186.174 50.0067 186.22 49.4867 186.247 48.94L186.387 45.16H196.407V54.34H192.607ZM184.027 58.24V52.96H197.907V58.24H194.387V56H187.567V58.24H184.027ZM205.96 56V53.98L205.7 53.48V49.76C205.7 49.16 205.514 48.7 205.14 48.38C204.78 48.0467 204.2 47.88 203.4 47.88C202.88 47.88 202.354 47.9667 201.82 48.14C201.287 48.3 200.834 48.5267 200.46 48.82L199.18 46.24C199.794 45.84 200.527 45.5333 201.38 45.32C202.247 45.0933 203.107 44.98 203.96 44.98C205.72 44.98 207.08 45.3867 208.04 46.2C209.014 47 209.5 48.26 209.5 49.98V56H205.96ZM202.76 56.18C201.894 56.18 201.16 56.0333 200.56 55.74C199.96 55.4467 199.5 55.0467 199.18 54.54C198.874 54.0333 198.72 53.4667 198.72 52.84C198.72 52.1733 198.887 51.6 199.22 51.12C199.567 50.6267 200.094 50.2533 200.8 50C201.507 49.7333 202.42 49.6 203.54 49.6H206.1V51.58H204.06C203.447 51.58 203.014 51.68 202.76 51.88C202.52 52.08 202.4 52.3467 202.4 52.68C202.4 53.0133 202.527 53.28 202.78 53.48C203.034 53.68 203.38 53.78 203.82 53.78C204.234 53.78 204.607 53.68 204.94 53.48C205.287 53.2667 205.54 52.9467 205.7 52.52L206.22 53.92C206.02 54.6667 205.627 55.2333 205.04 55.62C204.467 55.9933 203.707 56.18 202.76 56.18ZM218.646 52C218.273 52.2267 217.84 52.4133 217.346 52.56C216.853 52.6933 216.28 52.76 215.626 52.76C214.12 52.76 212.98 52.4267 212.206 51.76C211.446 51.08 211.066 50 211.066 48.52V45.16H214.866V48.26C214.866 48.8733 215.006 49.3067 215.286 49.56C215.566 49.8133 215.973 49.94 216.506 49.94C216.92 49.94 217.3 49.8933 217.646 49.8C218.006 49.6933 218.333 49.5533 218.626 49.38L218.646 52ZM218.386 56V45.16H222.166V56H218.386ZM231.156 56V53.98L230.896 53.48V49.76C230.896 49.16 230.709 48.7 230.336 48.38C229.976 48.0467 229.396 47.88 228.596 47.88C228.076 47.88 227.549 47.9667 227.016 48.14C226.482 48.3 226.029 48.5267 225.656 48.82L224.376 46.24C224.989 45.84 225.722 45.5333 226.576 45.32C227.442 45.0933 228.302 44.98 229.156 44.98C230.916 44.98 232.276 45.3867 233.236 46.2C234.209 47 234.696 48.26 234.696 49.98V56H231.156ZM227.956 56.18C227.089 56.18 226.356 56.0333 225.756 55.74C225.156 55.4467 224.696 55.0467 224.376 54.54C224.069 54.0333 223.916 53.4667 223.916 52.84C223.916 52.1733 224.082 51.6 224.416 51.12C224.762 50.6267 225.289 50.2533 225.996 50C226.702 49.7333 227.616 49.6 228.736 49.6H231.296V51.58H229.256C228.642 51.58 228.209 51.68 227.956 51.88C227.716 52.08 227.596 52.3467 227.596 52.68C227.596 53.0133 227.722 53.28 227.976 53.48C228.229 53.68 228.576 53.78 229.016 53.78C229.429 53.78 229.802 53.68 230.136 53.48C230.482 53.2667 230.736 52.9467 230.896 52.52L231.416 53.92C231.216 54.6667 230.822 55.2333 230.236 55.62C229.662 55.9933 228.902 56.18 227.956 56.18ZM236.982 56V45.16H240.982L244.762 52.24H243.182L247.322 45.16H250.902L250.922 56H247.502V48.92L248.082 49.32L244.722 55.04H243.102L239.742 49.04L240.402 48.86V56H236.982ZM253.486 56V45.16H257.266V50.84L261.806 45.16H265.306V56H261.506V50.3L257.006 56H253.486Z" fill="white"/>
<defs>
<linearGradient id="paint0_linear_66_179" x1="0" y1="250.81" x2="377.871" y2="403.796" gradientUnits="userSpaceOnUse">
<stop stop-color="#0A2472"/>
<stop offset="1" stop-color="#0E6BA8"/>
</linearGradient>
<clipPath id="clip0_66_179">
<rect width="358.741" height="346" fill="white" transform="translate(0 156)"/>
</clipPath>
</defs>
</svg>
