<svg width="203" height="87" viewBox="0 0 203 87" fill="none" xmlns="http://www.w3.org/2000/svg">
<path d="M80.5234 59H75.1328C74.9766 59 74.8984 58.9219 74.8984 58.7656L74.9922 25.7891C74.9922 25.6641 75.0547 25.6016 75.1797 25.6016H84.4141C87.3516 25.6016 89.6719 26.5 91.375 28.2969C93.0938 30.0781 93.9531 32.5078 93.9531 35.5859C93.9531 37.8359 93.5078 39.7969 92.6172 41.4688C91.7109 43.125 90.5391 44.4062 89.1016 45.3125C87.6641 46.2188 86.1016 46.6719 84.4141 46.6719H80.7578V58.7656C80.7578 58.9219 80.6797 59 80.5234 59ZM84.4141 31.2969L80.7578 31.3438V40.8594H84.4141C85.4297 40.8594 86.3125 40.375 87.0625 39.4062C87.8125 38.4219 88.1875 37.1484 88.1875 35.5859C88.1875 34.3359 87.8516 33.3125 87.1797 32.5156C86.5078 31.7031 85.5859 31.2969 84.4141 31.2969ZM115.899 59H100.383C100.258 59 100.196 58.9219 100.196 58.7656L100.243 25.8359C100.243 25.6797 100.321 25.6016 100.477 25.6016H105.821C105.977 25.6016 106.055 25.6797 106.055 25.8359L106.008 53.0938H115.899C116.055 53.0938 116.133 53.1719 116.133 53.3281V58.7656C116.133 58.9219 116.055 59 115.899 59ZM121.017 58.7656L126.97 25.7891C127.001 25.6641 127.079 25.6016 127.204 25.6016H134.165C134.29 25.6016 134.368 25.6641 134.4 25.7891L140.118 58.7656C140.134 58.9219 140.072 59 139.931 59H134.611C134.454 59 134.368 58.9219 134.353 58.7656L133.837 55.25H127.298L126.783 58.7656C126.767 58.9219 126.689 59 126.548 59H121.204C121.079 59 121.017 58.9219 121.017 58.7656ZM130.908 36.6406L130.626 34.8594L130.415 36.6406L128.259 50.1172H132.876L130.908 36.6406ZM151.705 59H146.9C146.65 59 146.525 58.8906 146.525 58.6719L146.478 25.9766C146.478 25.7266 146.603 25.6016 146.853 25.6016H151.189L159.299 44.5156L159.064 25.9766C159.064 25.7266 159.205 25.6016 159.486 25.6016H164.244C164.432 25.6016 164.525 25.7266 164.525 25.9766L164.572 58.7188C164.572 58.9062 164.494 59 164.338 59H160.119L151.799 41.3281L152.15 58.625C152.15 58.875 152.002 59 151.705 59ZM177.776 59H172.338C172.182 59 172.104 58.9219 172.104 58.7656L172.151 25.7891C172.151 25.6641 172.213 25.6016 172.338 25.6016H177.729C177.854 25.6016 177.917 25.6641 177.917 25.7891L177.963 58.7656C177.963 58.9219 177.901 59 177.776 59ZM195.784 59H190.37C190.23 59 190.159 58.9219 190.159 58.7656V31.3906H183.925C183.769 31.3906 183.691 31.3125 183.691 31.1562L183.738 25.7891C183.738 25.6641 183.8 25.6016 183.925 25.6016H202.159C202.331 25.6016 202.417 25.6641 202.417 25.7891V31.1562C202.417 31.3125 202.355 31.3906 202.23 31.3906H195.925L195.972 58.7656C195.972 58.9219 195.909 59 195.784 59Z" fill="url(#paint0_linear_63_12)"/>
<g clip-path="url(#clip0_63_12)">
<path d="M32.0029 75.0058C49.6776 75.0058 64.0058 60.6776 64.0058 43.0029C64.0058 25.3282 49.6776 11 32.0029 11C14.3282 11 0 25.3282 0 43.0029C0 60.6776 14.3282 75.0058 32.0029 75.0058Z" fill="url(#paint1_linear_63_12)"/>
<path fill-rule="evenodd" clip-rule="evenodd" d="M20.2639 58.6242C18.5877 58.6242 17.2283 57.2648 17.2283 55.5944C17.2283 53.924 18.5877 52.5588 20.2639 52.5588C21.9343 52.5588 23.2937 53.924 23.2937 55.5944C23.2937 57.2648 21.9343 58.6242 20.2639 58.6242ZM50.5445 46.6836H13.4555C13.0696 46.6836 12.7585 46.3725 12.7585 45.9866V25.9647C12.7585 25.5787 13.0696 25.2677 13.4555 25.2677H18.87V23.2171C18.87 22.8312 19.181 22.5201 19.5612 22.5201H23.1209C23.5068 22.5201 23.8178 22.8312 23.8178 23.2171V25.2677H29.5261V23.2171C29.5261 22.8312 29.8371 22.5201 30.223 22.5201H33.777C34.1629 22.5201 34.4739 22.8312 34.4739 23.2171V25.2677H40.1822V23.2171C40.1822 22.8312 40.4932 22.5201 40.8791 22.5201H44.4388C44.819 22.5201 45.1358 22.8312 45.1358 23.2171V25.2677H50.5445C50.9304 25.2677 51.2415 25.5787 51.2415 25.9647V45.9866C51.2415 46.3725 50.9304 46.6836 50.5445 46.6836ZM18.87 26.6616H14.1467V45.2897H49.8533V26.6616H45.1358V28.7122C45.1358 29.0981 44.819 29.4092 44.4388 29.4092H40.8791C40.4932 29.4092 40.1822 29.0981 40.1822 28.7122V26.6616H34.4739V28.7122C34.4739 29.0981 34.1629 29.4092 33.777 29.4092H30.223C29.8371 29.4092 29.5261 29.0981 29.5261 28.7122V26.6616H23.8178V28.7122C23.8178 29.0981 23.5068 29.4092 23.1209 29.4092H19.5612C19.181 29.4092 18.87 29.0981 18.87 28.7122V26.6616ZM43.7419 25.9762V25.9647V25.9531V23.9141H41.5761V25.9647V28.0152H43.7419V25.9762ZM22.4239 25.9704V25.9647V25.9589V23.9141H20.2581V28.0152H22.4239V25.9704ZM30.9142 25.9647V28.0152H33.0858V25.9647V23.9141H30.9142V25.9647ZM31.519 62.7829V54.4309C31.519 54.0507 31.8301 53.7397 32.216 53.7397H36.2884C36.6743 53.7397 36.9853 54.0507 36.9853 54.4309V62.086H38.65V51.3032C38.65 50.9172 38.961 50.6062 39.347 50.6062H43.4193C43.8052 50.6062 44.1163 50.9172 44.1163 51.3032V62.086H45.7752V48.4001C45.7752 48.0142 46.092 47.7031 46.4721 47.7031H50.5445C50.9304 47.7031 51.2415 48.0142 51.2415 48.4001V62.7829V62.8002V62.8175V62.8348V62.8578C51.2357 62.8636 51.2357 62.8693 51.2357 62.8751V62.8924L51.23 62.9097V62.9269C51.23 62.9327 51.2242 62.9385 51.2242 62.9385C51.2242 62.9442 51.2242 62.95 51.2184 62.9557V62.973C51.2127 62.9788 51.2127 62.9845 51.2127 62.9903C51.2069 63.0018 51.2069 63.0133 51.2012 63.0249C51.2012 63.0306 51.1954 63.0364 51.1954 63.0364C51.1896 63.0421 51.1896 63.0479 51.1896 63.0537C51.1781 63.0767 51.1666 63.094 51.1608 63.117L51.1493 63.1285C51.1436 63.1401 51.1378 63.1516 51.132 63.1573C51.132 63.1631 51.1263 63.1689 51.1263 63.1746C51.1148 63.1804 51.109 63.1919 51.1032 63.1977C51.1032 63.2034 51.0975 63.2092 51.0917 63.215C51.0917 63.2207 51.086 63.2207 51.086 63.2265L51.0744 63.238C51.0629 63.2495 51.0572 63.2553 51.0514 63.2668C51.0456 63.2668 51.0456 63.2726 51.0399 63.2783L51.0284 63.2898C51.0226 63.2898 51.0168 63.2956 51.0168 63.3014C51.0111 63.3014 51.0053 63.3071 50.9996 63.3129C50.9996 63.3129 50.9938 63.3186 50.988 63.3186C50.988 63.3244 50.9823 63.3302 50.9765 63.3302C50.9708 63.3359 50.965 63.3359 50.965 63.3417L50.9477 63.3532L50.9362 63.359C50.9304 63.3647 50.9247 63.3647 50.9247 63.3705C50.9189 63.3705 50.9132 63.3762 50.9074 63.3762C50.9016 63.382 50.8959 63.382 50.8959 63.3878L50.8786 63.3935C50.8728 63.3993 50.8671 63.3993 50.8613 63.405L50.8498 63.4108C50.844 63.4108 50.8383 63.4166 50.8325 63.4166L50.8152 63.4223C50.8152 63.4281 50.8095 63.4281 50.8037 63.4338C50.798 63.4338 50.7922 63.4338 50.7864 63.4396L50.7692 63.4454C50.7634 63.4454 50.7576 63.4454 50.7519 63.4511C50.7461 63.4511 50.7404 63.4511 50.7404 63.4511C50.7346 63.4569 50.7288 63.4569 50.7231 63.4569C50.7173 63.4569 50.7116 63.4626 50.7058 63.4626C50.7 63.4626 50.6943 63.4626 50.6885 63.4626C50.6828 63.4684 50.677 63.4684 50.6712 63.4684C50.6655 63.4684 50.6597 63.4684 50.6539 63.4742C50.6482 63.4742 50.6424 63.4742 50.6367 63.4742C50.6309 63.4742 50.6251 63.4742 50.6194 63.4742C50.6136 63.4742 50.6079 63.4799 50.6021 63.4799C50.5963 63.4799 50.5906 63.4799 50.5848 63.4799C50.5791 63.4799 50.5733 63.4799 50.5675 63.4799C50.5618 63.4799 50.5503 63.4799 50.5445 63.4799H46.4721H43.4193H39.347H36.2884H32.216C31.8301 63.4799 31.519 63.1689 31.519 62.7829ZM35.5914 62.086V55.1278H32.913V62.086H35.5914ZM42.7224 62.086V51.9944H40.0382V62.086H42.7224ZM49.8533 62.086V49.097H47.1691V62.086H49.8533ZM24.9411 38.7462H16.1858C15.7998 38.7462 15.4888 38.4352 15.4888 38.0493V31.3906C15.4888 31.0047 15.7998 30.6937 16.1858 30.6937H24.9411C25.327 30.6937 25.638 31.0047 25.638 31.3906V38.0493C25.638 38.4352 25.327 38.7462 24.9411 38.7462ZM16.8827 37.3581H24.2441V32.0818H16.8827V37.3581ZM36.3805 38.7462H27.6252C27.2393 38.7462 26.9283 38.4352 26.9283 38.0493V31.3906C26.9283 31.0047 27.2393 30.6937 27.6252 30.6937H36.3805C36.7607 30.6937 37.0717 31.0047 37.0717 31.3906V38.0493C37.0717 38.4352 36.7607 38.7462 36.3805 38.7462ZM28.3164 37.3581H35.6836V32.0818H28.3164V37.3581ZM47.8142 38.7462H39.0705H39.059C39.0417 38.7462 39.0244 38.7462 39.0071 38.7462L38.9898 38.7405H38.9841C38.915 38.7347 38.8458 38.7174 38.7825 38.6886L38.771 38.6829L38.7594 38.6771C38.673 38.6368 38.5924 38.5734 38.5233 38.4928L38.5175 38.4813H38.5117V38.4755L38.506 38.4697L38.4945 38.4582L38.4887 38.4467L38.4829 38.4409L38.4772 38.4294C38.4714 38.4237 38.4714 38.4179 38.4657 38.4121C38.4599 38.4064 38.4541 38.3949 38.4484 38.3833C38.4484 38.3776 38.4426 38.3718 38.4426 38.3661C38.4369 38.3603 38.4369 38.3603 38.4311 38.3545L38.4253 38.3373L38.4196 38.32L38.4138 38.3085C38.4081 38.2969 38.4081 38.2854 38.4023 38.2797V38.2739L38.3965 38.2566C38.3965 38.2509 38.3908 38.2451 38.3908 38.2393C38.3735 38.1817 38.3677 38.1126 38.3677 38.0493V31.3906C38.3677 31.0047 38.6788 30.6937 39.059 30.6937H47.8142H47.82H47.8258H47.8373H47.843C47.964 30.6994 48.0792 30.734 48.1771 30.7916L48.1886 30.8031C48.1944 30.8031 48.2002 30.8089 48.2059 30.8089C48.229 30.8319 48.2578 30.8492 48.2808 30.8722H48.2866L48.2923 30.878L48.2981 30.8895H48.3038L48.3096 30.901C48.3154 30.9068 48.3211 30.9068 48.3211 30.9125C48.4075 31.0047 48.4709 31.1199 48.4997 31.2466V31.2639C48.4997 31.2697 48.4997 31.2754 48.5054 31.2812V31.2985V31.3042V31.3157V31.3215L48.5112 31.333V31.3388V31.3503V31.3561V31.3676V31.3734V31.3849V31.3906V38.0493C48.5112 38.4352 48.2002 38.7462 47.8142 38.7462ZM41.1211 37.3581H47.1173V32.7903L41.1211 37.3581ZM45.7521 32.0818H39.7559V36.6496L45.7521 32.0818ZM42.826 41.4419H21.174C20.788 41.4419 20.477 41.1309 20.477 40.745C20.477 40.359 20.788 40.048 21.174 40.048H42.826C43.212 40.048 43.523 40.359 43.523 40.745C43.523 41.1309 43.212 41.4419 42.826 41.4419ZM45.8846 44.0109H18.1154C17.7295 44.0109 17.4184 43.6999 17.4184 43.314C17.4184 42.928 17.7295 42.617 18.1154 42.617H45.8846C46.2705 42.617 46.5816 42.928 46.5816 43.314C46.5816 43.6999 46.2705 44.0109 45.8846 44.0109ZM38.4657 38.4121C38.4599 38.4006 38.4541 38.3949 38.4484 38.3833L38.4657 38.4121ZM21.4217 63.4799H19.1004C18.7663 63.4799 18.484 63.2438 18.4207 62.9154L18.0635 61.0607C17.5451 60.8533 17.0671 60.5768 16.6235 60.2312L14.8437 60.8476C14.5269 60.957 14.1755 60.8303 14.0142 60.5423L12.8507 58.532C12.6836 58.244 12.747 57.8754 13.0005 57.6565L14.4232 56.4238C14.3886 56.1474 14.3656 55.8709 14.3656 55.5944C14.3656 55.3122 14.3886 55.0357 14.4232 54.7649L13.0005 53.5265C12.747 53.3077 12.6836 52.9448 12.8507 52.651L14.0142 50.6465C14.1755 50.3527 14.5269 50.226 14.8437 50.3355L16.6235 50.9518C17.0671 50.6062 17.5451 50.3297 18.0635 50.1223L18.4207 48.2676C18.484 47.9393 18.7663 47.7031 19.1004 47.7031H21.4217C21.7557 47.7031 22.0437 47.9393 22.1071 48.2676L22.4585 50.1223C22.9769 50.3297 23.4607 50.6062 23.8985 50.9518L25.6841 50.3355C25.9951 50.226 26.3465 50.3527 26.5135 50.6465L27.6713 52.651C27.8384 52.9448 27.775 53.3077 27.5273 53.5265L26.0988 54.7649C26.1391 55.0357 26.1564 55.3179 26.1564 55.5944C26.1564 55.8709 26.1391 56.1474 26.0988 56.4238L27.5273 57.6565C27.775 57.8754 27.8384 58.244 27.6713 58.532L26.5135 60.5423C26.3465 60.8303 25.9951 60.957 25.6841 60.8476L23.8985 60.2312C23.4607 60.5768 22.9769 60.8533 22.4585 61.0607L22.1071 62.9154C22.0437 63.2438 21.7557 63.4799 21.4217 63.4799ZM19.6764 62.086H20.8457L21.1682 60.4098C21.2201 60.1621 21.3986 59.9605 21.6405 59.8799C22.2511 59.684 22.8041 59.3672 23.2822 58.9295C23.4722 58.7567 23.7372 58.7048 23.9791 58.7855L25.5919 59.35L26.1795 58.3304L24.8892 57.213C24.6991 57.0517 24.6127 56.7925 24.6646 56.5448C24.7337 56.2338 24.7625 55.9112 24.7625 55.5944C24.7625 55.2718 24.7337 54.955 24.6646 54.644C24.6127 54.3905 24.6991 54.1371 24.8892 53.9701L26.1795 52.8526L25.5919 51.8388L23.9791 52.3976C23.7372 52.4782 23.4722 52.4264 23.2879 52.2536C22.8041 51.8216 22.2511 51.499 21.6405 51.3032C21.3986 51.2283 21.2201 51.0209 21.1682 50.7732L20.8457 49.097H19.6764L19.3538 50.7732C19.3077 51.0209 19.1234 51.2283 18.8815 51.3032C18.2709 51.499 17.7179 51.8216 17.2399 52.2536C17.0498 52.4264 16.7848 52.4782 16.5429 52.3976L14.9301 51.8388L14.3425 52.8526L15.6328 53.9701C15.8286 54.1371 15.915 54.3905 15.8574 54.644C15.7941 54.955 15.7595 55.2718 15.7595 55.5944C15.7595 55.9112 15.7941 56.2338 15.8574 56.5448C15.915 56.7925 15.8286 57.0517 15.6328 57.213L14.3425 58.3362L14.9301 59.35L16.5429 58.7855C16.7848 58.7048 17.0498 58.7567 17.2399 58.9295C17.7179 59.3672 18.2709 59.684 18.8815 59.8799C19.1234 59.9605 19.3077 60.1621 19.3538 60.4098L19.6764 62.086ZM20.2639 53.9528C19.3596 53.9528 18.6223 54.6901 18.6223 55.5944C18.6223 56.4987 19.3596 57.2303 20.2639 57.2303C21.1682 57.2303 21.8997 56.4987 21.8997 55.5944C21.8997 54.6901 21.1682 53.9528 20.2639 53.9528Z" fill="white"/>
</g>
<defs>
<linearGradient id="paint0_linear_63_12" x1="203" y1="43.5" x2="73" y2="43.5" gradientUnits="userSpaceOnUse">
<stop stop-color="#0A2472"/>
<stop offset="1" stop-color="#0E6BA8"/>
</linearGradient>
<linearGradient id="paint1_linear_63_12" x1="32.0029" y1="11" x2="32.0029" y2="75.0058" gradientUnits="userSpaceOnUse">
<stop offset="0.274038" stop-color="#0A2472"/>
<stop offset="1" stop-color="#0E6BA8"/>
</linearGradient>
<clipPath id="clip0_63_12">
<rect width="64" height="64" fill="white" transform="translate(0 11)"/>
</clipPath>
</defs>
</svg>
