<svg width="64" height="64" viewBox="0 0 64 64" fill="none" xmlns="http://www.w3.org/2000/svg">
<g clip-path="url(#clip0_63_7)">
<path d="M32.0029 64.0058C49.6776 64.0058 64.0058 49.6776 64.0058 32.0029C64.0058 14.3282 49.6776 0 32.0029 0C14.3282 0 0 14.3282 0 32.0029C0 49.6776 14.3282 64.0058 32.0029 64.0058Z" fill="url(#paint0_linear_63_7)"/>
<path fill-rule="evenodd" clip-rule="evenodd" d="M20.2639 47.6242C18.5877 47.6242 17.2283 46.2648 17.2283 44.5944C17.2283 42.924 18.5877 41.5588 20.2639 41.5588C21.9343 41.5588 23.2937 42.924 23.2937 44.5944C23.2937 46.2648 21.9343 47.6242 20.2639 47.6242ZM50.5445 35.6836H13.4555C13.0696 35.6836 12.7585 35.3725 12.7585 34.9866V14.9647C12.7585 14.5787 13.0696 14.2677 13.4555 14.2677H18.87V12.2171C18.87 11.8312 19.181 11.5201 19.5612 11.5201H23.1209C23.5068 11.5201 23.8178 11.8312 23.8178 12.2171V14.2677H29.5261V12.2171C29.5261 11.8312 29.8371 11.5201 30.223 11.5201H33.777C34.1629 11.5201 34.4739 11.8312 34.4739 12.2171V14.2677H40.1822V12.2171C40.1822 11.8312 40.4932 11.5201 40.8791 11.5201H44.4388C44.819 11.5201 45.1358 11.8312 45.1358 12.2171V14.2677H50.5445C50.9304 14.2677 51.2415 14.5787 51.2415 14.9647V34.9866C51.2415 35.3725 50.9304 35.6836 50.5445 35.6836ZM18.87 15.6616H14.1467V34.2897H49.8533V15.6616H45.1358V17.7122C45.1358 18.0981 44.819 18.4092 44.4388 18.4092H40.8791C40.4932 18.4092 40.1822 18.0981 40.1822 17.7122V15.6616H34.4739V17.7122C34.4739 18.0981 34.1629 18.4092 33.777 18.4092H30.223C29.8371 18.4092 29.5261 18.0981 29.5261 17.7122V15.6616H23.8178V17.7122C23.8178 18.0981 23.5068 18.4092 23.1209 18.4092H19.5612C19.181 18.4092 18.87 18.0981 18.87 17.7122V15.6616ZM43.7419 14.9762V14.9647V14.9531V12.9141H41.5761V14.9647V17.0152H43.7419V14.9762ZM22.4239 14.9704V14.9647V14.9589V12.9141H20.2581V17.0152H22.4239V14.9704ZM30.9142 14.9647V17.0152H33.0858V14.9647V12.9141H30.9142V14.9647ZM31.519 51.7829V43.4309C31.519 43.0507 31.8301 42.7397 32.216 42.7397H36.2884C36.6743 42.7397 36.9853 43.0507 36.9853 43.4309V51.086H38.65V40.3032C38.65 39.9172 38.961 39.6062 39.347 39.6062H43.4193C43.8052 39.6062 44.1163 39.9172 44.1163 40.3032V51.086H45.7752V37.4001C45.7752 37.0142 46.092 36.7031 46.4721 36.7031H50.5445C50.9304 36.7031 51.2415 37.0142 51.2415 37.4001V51.7829V51.8002V51.8175V51.8348V51.8578C51.2357 51.8636 51.2357 51.8693 51.2357 51.8751V51.8924L51.23 51.9097V51.9269C51.23 51.9327 51.2242 51.9385 51.2242 51.9385C51.2242 51.9442 51.2242 51.95 51.2184 51.9557V51.973C51.2127 51.9788 51.2127 51.9845 51.2127 51.9903C51.2069 52.0018 51.2069 52.0133 51.2012 52.0249C51.2012 52.0306 51.1954 52.0364 51.1954 52.0364C51.1896 52.0421 51.1896 52.0479 51.1896 52.0537C51.1781 52.0767 51.1666 52.094 51.1608 52.117L51.1493 52.1285C51.1436 52.1401 51.1378 52.1516 51.132 52.1573C51.132 52.1631 51.1263 52.1689 51.1263 52.1746C51.1148 52.1804 51.109 52.1919 51.1032 52.1977C51.1032 52.2034 51.0975 52.2092 51.0917 52.215C51.0917 52.2207 51.086 52.2207 51.086 52.2265L51.0744 52.238C51.0629 52.2495 51.0572 52.2553 51.0514 52.2668C51.0456 52.2668 51.0456 52.2726 51.0399 52.2783L51.0284 52.2898C51.0226 52.2898 51.0168 52.2956 51.0168 52.3014C51.0111 52.3014 51.0053 52.3071 50.9996 52.3129C50.9996 52.3129 50.9938 52.3186 50.988 52.3186C50.988 52.3244 50.9823 52.3302 50.9765 52.3302C50.9708 52.3359 50.965 52.3359 50.965 52.3417L50.9477 52.3532L50.9362 52.359C50.9304 52.3647 50.9247 52.3647 50.9247 52.3705C50.9189 52.3705 50.9132 52.3762 50.9074 52.3762C50.9016 52.382 50.8959 52.382 50.8959 52.3878L50.8786 52.3935C50.8728 52.3993 50.8671 52.3993 50.8613 52.405L50.8498 52.4108C50.844 52.4108 50.8383 52.4166 50.8325 52.4166L50.8152 52.4223C50.8152 52.4281 50.8095 52.4281 50.8037 52.4338C50.798 52.4338 50.7922 52.4338 50.7864 52.4396L50.7692 52.4454C50.7634 52.4454 50.7576 52.4454 50.7519 52.4511C50.7461 52.4511 50.7404 52.4511 50.7404 52.4511C50.7346 52.4569 50.7288 52.4569 50.7231 52.4569C50.7173 52.4569 50.7116 52.4626 50.7058 52.4626C50.7 52.4626 50.6943 52.4626 50.6885 52.4626C50.6828 52.4684 50.677 52.4684 50.6712 52.4684C50.6655 52.4684 50.6597 52.4684 50.6539 52.4742C50.6482 52.4742 50.6424 52.4742 50.6367 52.4742C50.6309 52.4742 50.6251 52.4742 50.6194 52.4742C50.6136 52.4742 50.6079 52.4799 50.6021 52.4799C50.5963 52.4799 50.5906 52.4799 50.5848 52.4799C50.5791 52.4799 50.5733 52.4799 50.5675 52.4799C50.5618 52.4799 50.5503 52.4799 50.5445 52.4799H46.4721H43.4193H39.347H36.2884H32.216C31.8301 52.4799 31.519 52.1689 31.519 51.7829ZM35.5914 51.086V44.1278H32.913V51.086H35.5914ZM42.7224 51.086V40.9944H40.0382V51.086H42.7224ZM49.8533 51.086V38.097H47.1691V51.086H49.8533ZM24.9411 27.7462H16.1858C15.7998 27.7462 15.4888 27.4352 15.4888 27.0493V20.3906C15.4888 20.0047 15.7998 19.6937 16.1858 19.6937H24.9411C25.327 19.6937 25.638 20.0047 25.638 20.3906V27.0493C25.638 27.4352 25.327 27.7462 24.9411 27.7462ZM16.8827 26.3581H24.2441V21.0818H16.8827V26.3581ZM36.3805 27.7462H27.6252C27.2393 27.7462 26.9283 27.4352 26.9283 27.0493V20.3906C26.9283 20.0047 27.2393 19.6937 27.6252 19.6937H36.3805C36.7607 19.6937 37.0717 20.0047 37.0717 20.3906V27.0493C37.0717 27.4352 36.7607 27.7462 36.3805 27.7462ZM28.3164 26.3581H35.6836V21.0818H28.3164V26.3581ZM47.8142 27.7462H39.0705H39.059C39.0417 27.7462 39.0244 27.7462 39.0071 27.7462L38.9898 27.7405H38.9841C38.915 27.7347 38.8458 27.7174 38.7825 27.6886L38.771 27.6829L38.7594 27.6771C38.673 27.6368 38.5924 27.5734 38.5233 27.4928L38.5175 27.4813H38.5117V27.4755L38.506 27.4697L38.4945 27.4582L38.4887 27.4467L38.4829 27.4409L38.4772 27.4294C38.4714 27.4237 38.4714 27.4179 38.4657 27.4121C38.4599 27.4064 38.4541 27.3949 38.4484 27.3833C38.4484 27.3776 38.4426 27.3718 38.4426 27.3661C38.4369 27.3603 38.4369 27.3603 38.4311 27.3545L38.4253 27.3373L38.4196 27.32L38.4138 27.3085C38.4081 27.2969 38.4081 27.2854 38.4023 27.2797V27.2739L38.3965 27.2566C38.3965 27.2509 38.3908 27.2451 38.3908 27.2393C38.3735 27.1817 38.3677 27.1126 38.3677 27.0493V20.3906C38.3677 20.0047 38.6788 19.6937 39.059 19.6937H47.8142H47.82H47.8258H47.8373H47.843C47.964 19.6994 48.0792 19.734 48.1771 19.7916L48.1886 19.8031C48.1944 19.8031 48.2002 19.8089 48.2059 19.8089C48.229 19.8319 48.2578 19.8492 48.2808 19.8722H48.2866L48.2923 19.878L48.2981 19.8895H48.3038L48.3096 19.901C48.3154 19.9068 48.3211 19.9068 48.3211 19.9125C48.4075 20.0047 48.4709 20.1199 48.4997 20.2466V20.2639C48.4997 20.2697 48.4997 20.2754 48.5054 20.2812V20.2985V20.3042V20.3157V20.3215L48.5112 20.333V20.3388V20.3503V20.3561V20.3676V20.3734V20.3849V20.3906V27.0493C48.5112 27.4352 48.2002 27.7462 47.8142 27.7462ZM41.1211 26.3581H47.1173V21.7903L41.1211 26.3581ZM45.7521 21.0818H39.7559V25.6496L45.7521 21.0818ZM42.826 30.4419H21.174C20.788 30.4419 20.477 30.1309 20.477 29.745C20.477 29.359 20.788 29.048 21.174 29.048H42.826C43.212 29.048 43.523 29.359 43.523 29.745C43.523 30.1309 43.212 30.4419 42.826 30.4419ZM45.8846 33.0109H18.1154C17.7295 33.0109 17.4184 32.6999 17.4184 32.314C17.4184 31.928 17.7295 31.617 18.1154 31.617H45.8846C46.2705 31.617 46.5816 31.928 46.5816 32.314C46.5816 32.6999 46.2705 33.0109 45.8846 33.0109ZM38.4657 27.4121C38.4599 27.4006 38.4541 27.3949 38.4484 27.3833L38.4657 27.4121ZM21.4217 52.4799H19.1004C18.7663 52.4799 18.484 52.2438 18.4207 51.9154L18.0635 50.0607C17.5451 49.8533 17.0671 49.5768 16.6235 49.2312L14.8437 49.8476C14.5269 49.957 14.1755 49.8303 14.0142 49.5423L12.8507 47.532C12.6836 47.244 12.747 46.8754 13.0005 46.6565L14.4232 45.4238C14.3886 45.1474 14.3656 44.8709 14.3656 44.5944C14.3656 44.3122 14.3886 44.0357 14.4232 43.7649L13.0005 42.5265C12.747 42.3077 12.6836 41.9448 12.8507 41.651L14.0142 39.6465C14.1755 39.3527 14.5269 39.226 14.8437 39.3355L16.6235 39.9518C17.0671 39.6062 17.5451 39.3297 18.0635 39.1223L18.4207 37.2676C18.484 36.9393 18.7663 36.7031 19.1004 36.7031H21.4217C21.7557 36.7031 22.0437 36.9393 22.1071 37.2676L22.4585 39.1223C22.9769 39.3297 23.4607 39.6062 23.8985 39.9518L25.6841 39.3355C25.9951 39.226 26.3465 39.3527 26.5135 39.6465L27.6713 41.651C27.8384 41.9448 27.775 42.3077 27.5273 42.5265L26.0988 43.7649C26.1391 44.0357 26.1564 44.3179 26.1564 44.5944C26.1564 44.8709 26.1391 45.1474 26.0988 45.4238L27.5273 46.6565C27.775 46.8754 27.8384 47.244 27.6713 47.532L26.5135 49.5423C26.3465 49.8303 25.9951 49.957 25.6841 49.8476L23.8985 49.2312C23.4607 49.5768 22.9769 49.8533 22.4585 50.0607L22.1071 51.9154C22.0437 52.2438 21.7557 52.4799 21.4217 52.4799ZM19.6764 51.086H20.8457L21.1682 49.4098C21.2201 49.1621 21.3986 48.9605 21.6405 48.8799C22.2511 48.684 22.8041 48.3672 23.2822 47.9295C23.4722 47.7567 23.7372 47.7048 23.9791 47.7855L25.5919 48.35L26.1795 47.3304L24.8892 46.213C24.6991 46.0517 24.6127 45.7925 24.6646 45.5448C24.7337 45.2338 24.7625 44.9112 24.7625 44.5944C24.7625 44.2718 24.7337 43.955 24.6646 43.644C24.6127 43.3905 24.6991 43.1371 24.8892 42.9701L26.1795 41.8526L25.5919 40.8388L23.9791 41.3976C23.7372 41.4782 23.4722 41.4264 23.2879 41.2536C22.8041 40.8216 22.2511 40.499 21.6405 40.3032C21.3986 40.2283 21.2201 40.0209 21.1682 39.7732L20.8457 38.097H19.6764L19.3538 39.7732C19.3077 40.0209 19.1234 40.2283 18.8815 40.3032C18.2709 40.499 17.7179 40.8216 17.2399 41.2536C17.0498 41.4264 16.7848 41.4782 16.5429 41.3976L14.9301 40.8388L14.3425 41.8526L15.6328 42.9701C15.8286 43.1371 15.915 43.3905 15.8574 43.644C15.7941 43.955 15.7595 44.2718 15.7595 44.5944C15.7595 44.9112 15.7941 45.2338 15.8574 45.5448C15.915 45.7925 15.8286 46.0517 15.6328 46.213L14.3425 47.3362L14.9301 48.35L16.5429 47.7855C16.7848 47.7048 17.0498 47.7567 17.2399 47.9295C17.7179 48.3672 18.2709 48.684 18.8815 48.8799C19.1234 48.9605 19.3077 49.1621 19.3538 49.4098L19.6764 51.086ZM20.2639 42.9528C19.3596 42.9528 18.6223 43.6901 18.6223 44.5944C18.6223 45.4987 19.3596 46.2303 20.2639 46.2303C21.1682 46.2303 21.8997 45.4987 21.8997 44.5944C21.8997 43.6901 21.1682 42.9528 20.2639 42.9528Z" fill="white"/>
</g>
<defs>
<linearGradient id="paint0_linear_63_7" x1="32.0029" y1="0" x2="32.0029" y2="64.0058" gradientUnits="userSpaceOnUse">
<stop offset="0.274038" stop-color="#0A2472"/>
<stop offset="1" stop-color="#0E6BA8"/>
</linearGradient>
<clipPath id="clip0_63_7">
<rect width="64" height="64" fill="white"/>
</clipPath>
</defs>
</svg>
