<!-- icon666.com - MILLIONS OF FREE VECTOR ICONS --><svg id="Layer_1" viewBox="0 0 64 64" xmlns="http://www.w3.org/2000/svg" data-name="Layer 1"><path d="m2 31h4a1 1 0 0 0 1-.92 25 25 0 0 1 49.83 0 1 1 0 0 0 1 .92h4a1 1 0 0 0 .73-.32 1 1 0 0 0 .27-.75 31 31 0 0 0 -61.83 0 1 1 0 0 0 .27.75 1 1 0 0 0 .73.32zm29.93-28a29.06 29.06 0 0 1 28.83 26h-2a27 27 0 0 0 -53.66 0h-2a29.06 29.06 0 0 1 28.83-26z" fill="#000000" style="fill: rgb(255, 255, 255);"></path><path d="m31.93 63a31.05 31.05 0 0 0 30.92-28.93 1 1 0 0 0 -.27-.75 1 1 0 0 0 -.73-.32h-4a1 1 0 0 0 -1 .92 25 25 0 0 1 -49.85 0 1 1 0 0 0 -1-.92h-4a1 1 0 0 0 -.73.32 1 1 0 0 0 -.27.75 31.06 31.06 0 0 0 30.93 28.93zm-26.83-28a27 27 0 0 0 53.65 0h2a29 29 0 0 1 -57.66 0z" fill="#000000" style="fill: rgb(255, 255, 255);"></path><path d="m27.45 49.83a1 1 0 0 0 .55.17 1 1 0 0 0 .39-.08l14-6a1 1 0 0 0 .61-.92v-28a1 1 0 0 0 -1-1h-20a1 1 0 0 0 -1 1v31a1 1 0 0 0 1 1h5v2a1 1 0 0 0 .45.83zm13.55-7.49-12 5.14v-25.82l12-5.14zm-18 2.66v-29h14.13l-9.52 4.08a1 1 0 0 0 -.61.92v24z" fill="#000000" style="fill: rgb(255, 255, 255);"></path></svg>