<!-- icon666.com - MILLIONS OF FREE VECTOR ICONS --><svg id="Layer_5" enable-background="new 0 0 64 64" viewBox="0 0 64 64" xmlns="http://www.w3.org/2000/svg" xmlns:xlink="http://www.w3.org/1999/xlink"><linearGradient id="SVGID_1_" gradientUnits="userSpaceOnUse" x1="32" x2="32" y1="63" y2="1"><stop offset="0" stop-color="#9f2fff"></stop><stop offset="1" stop-color="#0bb1d3"></stop></linearGradient><path d="m28 34.095v-1.095h2v1.095c0 1.051.854 1.905 1.905 1.905h.189c1.052 0 1.906-.854 1.906-1.905 0-.821-.523-1.548-1.304-1.809l-2.025-.676c-1.598-.532-2.671-2.021-2.671-3.705 0-1.84 1.284-3.378 3-3.789v-2.116h2v2.117c1.716.411 3 1.948 3 3.789l-2 .094v-.095c0-1.051-.854-1.905-1.905-1.905h-.189c-1.052 0-1.906.854-1.906 1.905 0 .821.523 1.548 1.304 1.809l2.025.676c1.598.532 2.671 2.021 2.671 3.705 0 1.84-1.284 3.378-3 3.789v2.116h-2v-2.117c-1.716-.41-3-1.948-3-3.788zm35-2.095c0 1.654-1.346 3-3 3h-2.204c-.649 5.667-3.067 10.739-6.707 14.674l3.619 3.619-1.414 1.414-3.619-3.619c-3.935 3.641-9.007 6.058-14.674 6.707v2.205c0 1.654-1.346 3-3 3s-3-1.346-3-3v-2.204c-5.667-.649-10.739-3.067-14.674-6.707l-3.619 3.619-1.414-1.414 3.619-3.619c-3.642-3.936-6.06-9.008-6.709-14.675h-2.204c-1.654 0-3-1.346-3-3s1.346-3 3-3h2.197c.643-5.593 3.042-10.694 6.721-14.668l-3.625-3.625 1.414-1.414 3.627 3.627c2.469-2.285 5.402-4.099 8.68-5.306-.002-.058-.014-.115-.014-.173 0-2.449 1.992-4.441 4.441-4.441h2.286c.79-1.202 2.146-2 3.688-2h3.168c2.436 0 4.417 1.981 4.417 4.416v.125c0 .394-.053.784-.155 1.162l-.214.783c3.429 1.204 6.494 3.054 9.052 5.417l3.61-3.61 1.414 1.414-3.608 3.608c3.674 3.965 6.059 9.067 6.703 14.685h2.198c1.654 0 3 1.346 3 3zm-13.364-16.222-1.386 1.386c2.95 3.232 4.911 7.333 5.525 11.836h2.013c-.63-4.991-2.835-9.602-6.152-13.222zm-2.636 16.222c0-1.654 1.346-3 3-3h1.76c-1.077-7.162-5.928-13.16-12.711-15.71l-.958 3.51 5.265 7.238c1.73 2.381 2.644 5.193 2.644 8.134 0 7.625-6.203 13.828-13.828 13.828h-.344c-7.625 0-13.828-6.203-13.828-13.828 0-2.94.914-5.753 2.645-8.134l5.244-7.21-1.152-3.456c-6.663 2.598-11.432 8.566-12.497 15.628h1.76c1.654 0 3 1.346 3 3s-1.346 3-3 3h-1.752c1.303 8.641 8.111 15.449 16.752 16.752v-1.752c0-1.654 1.346-3 3-3s3 1.346 3 3v1.752c8.641-1.303 15.449-8.111 16.752-16.752h-1.752c-1.654 0-3-1.346-3-3zm-19.491-14-5.247 7.214c-1.48 2.036-2.262 4.442-2.262 6.958 0 6.522 5.306 11.828 11.828 11.828h.344c6.522 0 11.828-5.306 11.828-11.828 0-2.516-.782-4.922-2.262-6.958l-5.247-7.214zm12.594-8.579-.527 1.934c2.732 1.001 5.187 2.5 7.261 4.393l1.389-1.389c-2.321-2.148-5.075-3.84-8.123-4.938zm-15.103-1.98c0 .263.042.522.125.772l2.595 7.787h8.516l2.679-9.823c.057-.207.085-.42.085-.636v-.125c0-1.332-1.084-2.416-2.416-2.416h-3.168c-1.332 0-2.416 1.084-2.416 2.416 0 .259.041.514.123.759l1.826 5.511-1.898.629-1.826-5.51c-.15-.449-.225-.915-.225-1.389 0-.142.029-.277.042-.416h-1.601c-1.346 0-2.441 1.095-2.441 2.441zm-9.249 6.896 1.421 1.421c1.993-1.822 4.333-3.283 6.933-4.283l-.633-1.898c-2.906 1.104-5.513 2.729-7.721 4.76zm-7.541 14.663h2.015c.614-4.489 2.576-8.595 5.528-11.833l-1.421-1.421c-3.316 3.605-5.493 8.209-6.122 13.254zm-4.21 4h10c.552 0 1-.448 1-1s-.448-1-1-1h-10c-.552 0-1 .448-1 1s.448 1 1 1zm10.328 15.258 1.442-1.442c-2.933-3.211-4.919-7.29-5.538-11.816h-2.014c.634 5.111 2.828 9.688 6.11 13.258zm14.672 7.524v-2.014c-4.526-.619-8.605-2.605-11.816-5.538l-1.442 1.442c3.57 3.282 8.147 5.476 13.258 6.11zm4-5.782c0-.552-.448-1-1-1s-1 .448-1 1v10c0 .552.448 1 1 1s1-.448 1-1zm15.258-.328-1.442-1.442c-3.211 2.933-7.29 4.919-11.816 5.538v2.014c5.111-.634 9.688-2.828 13.258-6.11zm7.524-14.672h-2.014c-.619 4.526-2.605 8.605-5.538 11.816l1.442 1.442c3.282-3.57 5.476-8.147 6.11-13.258zm5.218-3c0-.552-.448-1-1-1h-10c-.552 0-1 .448-1 1s.448 1 1 1h10c.552 0 1-.448 1-1z" fill="url(#SVGID_1_)" style="fill: rgb(255, 255, 255);"></path></svg>