<!-- icon666.com - MILLIONS OF FREE VECTOR ICONS --><svg id="Layer_2" viewBox="0 0 16 16" xmlns="http://www.w3.org/2000/svg" data-name="Layer 2"><path d="m8 .5a7.5 7.5 0 1 0 7.5 7.5 7.5083 7.5083 0 0 0 -7.5-7.5zm0 14a6.5 6.5 0 1 1 6.5-6.5 6.5075 6.5075 0 0 1 -6.5 6.5z" fill="#000000" style="fill: rgb(255, 255, 255);"></path><path d="m10 8.5a1.5 1.5 0 1 0 1.5 1.5 1.5017 1.5017 0 0 0 -1.5-1.5zm0 2a.5.5 0 1 1 .5-.5.5006.5006 0 0 1 -.5.5z" fill="#000000" style="fill: rgb(255, 255, 255);"></path><path d="m6 7.5a1.5 1.5 0 1 0 -1.5-1.5 1.5017 1.5017 0 0 0 1.5 1.5zm0-2a.5.5 0 1 1 -.5.5.5006.5006 0 0 1 .5-.5z" fill="#000000" style="fill: rgb(255, 255, 255);"></path><path d="m10.6465 4.6465-6 6a.5.5 0 1 0 .707.707l6-6a.5.5 0 0 0 -.707-.707z" fill="#000000" style="fill: rgb(255, 255, 255);"></path></svg>